<svg id="Layer_1" data-name="Layer 1" xmlns="http://www.w3.org/2000/svg" viewBox="0 0 512 512"><defs><style>.cls-1{fill:#fff;}.cls-2{fill:#004221;}.cls-3{fill:#ffd400;}</style></defs><circle class="cls-1" cx="256" cy="256" r="256"/><path class="cls-2" d="M65,402.1l-6.3-8.6,1.2-.9,5.3,7.2,4.1-3-4.8-6.4,1.2-.9,4.8,6.4,4.1-3-5.3-7.3,1.2-.9,6.4,8.6Z"/><path class="cls-2" d="M52.9,384.8l-.8-1.3,5.3-14.1-10.1,6.1-.9-1.4,12.7-7.6.7,1.2-5.5,14.4,10.4-6.3.8,1.4Z"/><path class="cls-2" d="M41.7,365.4l-.8-1.6,9.3-10.2-13.8.7-.8-1.7,16.2-.6.6,1.3Z"/><path class="cls-2" d="M32,343.6l-.6-1.6,13.7-5.3.6,1.5Z"/><path class="cls-2" d="M27.6,331.6l-1.9-6a6.2,6.2,0,0,1,.2-4.5,3.8,3.8,0,0,1,2.5-1.9h0c2.4-.7,4.2.4,5.3,2.5l4.4-6.1.6,2-4.2,5.8,1.2,4,5.5-1.7.5,1.6Zm5.4-8.1c-.7-2.1-2.2-3.3-4-2.7h-.1c-1.7.5-2.3,2.2-1.6,4.4l1.3,4.4,5.7-1.8Z"/><path class="cls-2" d="M29,309.4h-.1a7.4,7.4,0,0,1-8.9-5.9,7.3,7.3,0,0,1,5.9-8.8h0a7.5,7.5,0,0,1,9,5.9A7.4,7.4,0,0,1,29,309.4Zm-2.7-13h0a5.8,5.8,0,0,0-4.8,6.9,5.7,5.7,0,0,0,7,4.4h.1a5.8,5.8,0,1,0-2.3-11.3Z"/><path class="cls-2" d="M17.2,285.7v-1.6l10.8-10.4-11.7,1.2-.2-1.6,14.7-1.5v1.3L19.7,283.8l12.1-1.2v1.6Z"/><path class="cls-2" d="M15.4,261.9v-1.7l8.1-5.2-7.9-5.5v-1.7l14.7.2v1.7l-11.9-.2,7.8,5.5h0l-8,5.2,11.9.2v1.7Z"/><path class="cls-2" d="M16.2,236.8l1-10.6,1.5.2-.9,8.9,5,.5.8-8h1.5l-.7,8.1,5.1.5.9-9.1,1.5.2-1.1,10.7Z"/><path class="cls-2" d="M18.7,215.9l.3-1.5,13.4-6.9-11.7-2.2.4-1.6,14.4,2.8-.2,1.3-13.7,7,11.9,2.3-.3,1.6Z"/><path class="cls-2" d="M26.3,189.6l-1.4,4.8-1.5-.4,3.3-11.2,1.4.5L26.7,188l12.7,3.7-.4,1.6Z"/><path class="cls-2" d="M31.1,170.1l.5-1.5,16.3-.9-.6,1.6-4.3.2L40.1,177l3,3.1-.6,1.6Zm10.3-.5-8.2.4,5.8,5.9Z"/><path class="cls-2" d="M38.2,153.4l.8-1.5,11.8,5.9,3.7-7.5,1.4.7-4.4,8.9Z"/><path class="cls-2" d="M69.2,125.1a6.1,6.1,0,0,1-.8,5.3c-1.5,2.2-4,2.9-6,1.5h0c-1.7-1.1-2.1-2.9-1.5-5.3a5.7,5.7,0,0,1-3.6-.6h0c-1.6-1-2-3.2-.7-5.1a3.3,3.3,0,0,1,4.8-1.1h0c1.6,1,1.8,2.8,1.2,5l4.8-.8a17.9,17.9,0,0,0-1.8-3.3l1.3-.8a16.9,16.9,0,0,1,1.9,3.8l3.6-.6v1.6ZM60.6,121h0a2.2,2.2,0,0,0-2.4,3.6h0c.8.5,1.5.6,3.1.4C61.8,123,61.6,121.7,60.6,121Zm7.2,4.4-5.6,1c-.5,2,0,3.4,1.1,4.1h0a2.8,2.8,0,0,0,4-1A4.8,4.8,0,0,0,67.8,125.4Z"/><path class="cls-2" d="M74.8,97.5,82,89.6l1.1,1L77,97.3l3.8,3.4,5.4-6,1.1,1.1-5.4,5.9,3.8,3.5,6.1-6.8L93,99.5l-7.3,7.9Z"/><path class="cls-2" d="M93.8,88.2h0a7.6,7.6,0,0,1,.3-10.7,8,8,0,0,1,5.9-2.2V77a6.6,6.6,0,0,0-4.7,1.6A6,6,0,0,0,95,87h.1a5.8,5.8,0,0,0,8.3.6c1.5-1.3,1.9-2.8,2.1-4.8H107a7.6,7.6,0,0,1-2.6,5.9A7.4,7.4,0,0,1,93.8,88.2Z"/><path class="cls-2" d="M109.9,73.9h0a7.4,7.4,0,0,1,1.4-10.6,7.5,7.5,0,0,1,10.6,1.5h0a7.5,7.5,0,1,1-12,9.1Zm10.6-8h0a5.8,5.8,0,1,0-9.3,6.9h.1a5.8,5.8,0,0,0,8.3,1.3A5.7,5.7,0,0,0,120.5,65.9Z"/><path class="cls-2" d="M126.2,53.2l1.4-.9,6.9,11.3,7.1-4.4.8,1.3-8.5,5.2Z"/><path class="cls-2" d="M145.2,50.5h-.1a7.5,7.5,0,0,1,3.4-10.2,7.3,7.3,0,0,1,10.1,3.4h0a7.5,7.5,0,0,1-3.3,10.2A7.4,7.4,0,0,1,145.2,50.5Zm11.9-6H157a5.8,5.8,0,1,0-10.3,5.1h0a5.8,5.8,0,1,0,10.4-5.2Z"/><path class="cls-2" d="M167,40.1h0a7.5,7.5,0,0,1,4.2-9.8,7.8,7.8,0,0,1,5.8-.1l-.5,1.6a5.7,5.7,0,0,0-4.8,0c-3.1,1.1-4.3,4.5-3.1,7.6h0c1.3,3.3,4.3,4.9,7.6,3.6a6.8,6.8,0,0,0,3.5-2.9l-1.3-3.4-4.2,1.6-.5-1.4,5.7-2.2,2,5.5a7.9,7.9,0,0,1-4.7,4.2C172.4,46.2,168.5,44.1,167,40.1Z"/><path class="cls-2" d="M187.1,25.2l1.6-.4,4.2,14.1-1.6.5Z"/><path class="cls-2" d="M200.3,29.2h0a7.3,7.3,0,0,1,5.6-9,7.9,7.9,0,0,1,6.2,1l-.9,1.5a6.2,6.2,0,0,0-5-1,5.9,5.9,0,0,0-4.3,7.1h0c.8,3.4,3.7,5.5,6.9,4.8a6.7,6.7,0,0,0,4.2-3.1l1.3.8a7.5,7.5,0,0,1-5.2,3.8A7.3,7.3,0,0,1,200.3,29.2Z"/><path class="cls-2" d="M226.9,16.8h1.5l8.4,13.9-1.7.2-2.2-3.6-8,.9-1.3,4.1-1.7.2Zm5.2,9-4.2-7.1-2.5,7.8Z"/><path class="cls-2" d="M244.9,15.4h1.7l.3,13.2,8.3-.3v1.6l-10,.3Z"/><path class="cls-2" d="M276,23.4h.1a7.3,7.3,0,0,1,8.2-6.7,7.8,7.8,0,0,1,5.5,2.9l-1.3,1.1a6.3,6.3,0,0,0-4.4-2.5c-3.2-.4-5.9,2-6.3,5.4h0a5.8,5.8,0,0,0,5,6.7,6.2,6.2,0,0,0,4.9-1.6l1,1.2a7.5,7.5,0,0,1-6.1,1.9A7.3,7.3,0,0,1,276,23.4Z"/><path class="cls-2" d="M297.4,26.1h0a7.5,7.5,0,1,1,14.7,3.1h0a7.5,7.5,0,0,1-9,5.9A7.3,7.3,0,0,1,297.4,26.1Zm13,2.8h0a5.9,5.9,0,0,0-4.4-7.2,5.8,5.8,0,0,0-6.9,4.7h0a5.9,5.9,0,0,0,4.4,7.2A5.8,5.8,0,0,0,310.4,28.9Z"/><path class="cls-2" d="M323.8,24.8l1.5.5,5.2,14.1,3.6-11.3,1.6.5-4.5,14-1.3-.4-5.4-14.4-3.7,11.5-1.5-.5Z"/><path class="cls-2" d="M340.2,43.8l1.5-.8a6.6,6.6,0,0,0,3.8,3.9c1.8.8,3.4.4,4-1h0c.6-1.3.2-2.3-2.4-4.1s-3.8-3.6-2.9-5.9h0c.9-2.1,3.5-2.9,6.1-1.8a7.7,7.7,0,0,1,4,3.7l-1.4.8a6.2,6.2,0,0,0-3.3-3.1c-1.8-.8-3.3-.3-3.8.9h0c-.6,1.2-.2,2.3,2.6,4.2s3.6,3.6,2.7,5.7h0c-1,2.4-3.6,3-6.2,1.9A8.6,8.6,0,0,1,340.2,43.8Z"/><path class="cls-2" d="M364.6,40.9,374,46l-.7,1.3-7.9-4.2L363,47.5l7.1,3.8-.7,1.3-7.1-3.7-2.4,4.5,8,4.3-.7,1.3-9.5-5Z"/><path class="cls-2" d="M382.9,51.2l5.3,3.5a5.5,5.5,0,0,1,2.7,3.5,3.9,3.9,0,0,1-.6,3.1h0a4.2,4.2,0,0,1-5.7,1.4l.5,7.6-1.7-1.2-.5-7.1-3.5-2.3-3.1,4.8-1.4-.9Zm1.1,9.7c1.8,1.2,3.8,1.1,4.8-.4h.1c1-1.5.4-3.2-1.6-4.5l-3.8-2.5-3.3,5Z"/><path class="cls-2" d="M399.9,62.7l1.4,1.2-3.8,13.2,12.1-6.7,1.4,1.1-14.2,7.7-1.2-.9Z"/><path class="cls-2" d="M420.8,80.3l1.1,1-5.3,15.5-1.3-1.3,1.4-4L410.9,86l-4,1.6-1.2-1.2ZM417.3,90l2.7-7.8-7.6,3.1Z"/><path class="cls-2" d="M433.6,95.7,430.3,92l1.1-1.1,7.8,8.7-1.2,1-3.3-3.7-9.8,8.8-1.1-1.2Z"/><path class="cls-2" d="M445.4,107.3l1,1.3-11.6,9-1.1-1.3Z"/><path class="cls-2" d="M446.5,121h0a7.5,7.5,0,1,1,8.4,12.5h-.1a7.5,7.5,0,0,1-10.5-2.1A7.3,7.3,0,0,1,446.5,121Zm7.4,11.1h0a6,6,0,0,0,1.9-8.3,5.8,5.8,0,0,0-8.3-1.4h0a5.8,5.8,0,1,0,6.4,9.7Z"/><path class="cls-2" d="M466.3,138.6l.7,1.3-6.1,13.8,10.5-5.5.7,1.4-13,6.9-.7-1.2,6.3-14.1L454,146.8l-.7-1.4Z"/><path class="cls-2" d="M474.4,173.4h.1a7.6,7.6,0,1,1,4.9,14.3h-.1a7.6,7.6,0,0,1-4.9-14.3Zm4.3,12.6h.1a5.8,5.8,0,1,0-3.7-11H475a5.8,5.8,0,1,0,3.7,10.9Z"/><path class="cls-2" d="M489.1,195.4l1.4,6.2a5.4,5.4,0,0,1-.4,4.4,4.4,4.4,0,0,1-2.6,1.8h-.1c-2.3.6-4.1-.7-5-2.9l-4.9,5.8-.5-2,4.7-5.5-1-4.1-5.6,1.3-.4-1.6Zm-5.9,7.8c.5,2.1,2,3.4,3.8,3h0c1.8-.4,2.6-2,2-4.4l-1-4.4-5.8,1.4Z"/><path class="cls-2" d="M486.2,217.5h.1a7.4,7.4,0,0,1,8.5,6.3,7.5,7.5,0,0,1-1.2,5.7l-1.4-.9a6.1,6.1,0,0,0,1.1-4.6c-.5-3.3-3.5-5.2-6.8-4.8h0c-3.5.5-5.8,3.1-5.3,6.6a6.9,6.9,0,0,0,2,4l3.7-.4-.6-4.5,1.5-.2.8,6-5.9.8a8.8,8.8,0,0,1-3-5.5A7.3,7.3,0,0,1,486.2,217.5Z"/><path class="cls-2" d="M496.6,246v1.5L482,254.8V253l3.8-1.9-.3-8-3.9-1.6v-1.7Zm-9.3,4.4,7.4-3.6-7.7-3.1Z"/><path class="cls-2" d="M496.6,264.1v1.6l-12.3,8.6,11.8.7v1.6l-14.8-.9v-1.3l12.7-8.8-12.1-.7v-1.6Z"/><path class="cls-2" d="M494.6,287.6l-.2,1.6-14.7-1.9.3-1.7Z"/><path class="cls-2" d="M480.5,296.6l1,1.3a6.8,6.8,0,0,0-3.1,4.5c-.4,2,.4,3.4,1.8,3.7h.1c1.3.3,2.2-.3,3.5-3.2s2.8-4.4,5.1-4h.1c2.2.4,3.5,2.8,2.9,5.5a7.4,7.4,0,0,1-2.8,4.7l-1-1.2a6.5,6.5,0,0,0,2.4-3.8c.4-1.9-.4-3.3-1.7-3.6h0c-1.4-.3-2.3.3-3.7,3.4s-2.8,4.3-5,3.8H480c-2.4-.5-3.6-2.9-3-5.8A8.2,8.2,0,0,1,480.5,296.6Z"/><path class="cls-2" d="M486.7,324.9l-.5,1.5-16.1,2.2.5-1.8,4.2-.5,2.4-7.7-3.3-2.8.5-1.6Zm-10.3,1.2,8.2-1-6.2-5.4Z"/><path class="cls-2" d="M478.6,343.3l1.9-4.6,1.4.5L477.6,350l-1.4-.5,1.8-4.7-12.3-4.9.6-1.5Z"/><path class="cls-2" d="M473.5,359l-.7,1.5-13.3-6.4.7-1.5Z"/><path class="cls-2" d="M461.7,366.1h0a7.5,7.5,0,0,1,2.8,10.4,7.4,7.4,0,0,1-10.3,2.7h0a7.5,7.5,0,0,1-2.8-10.4A7.4,7.4,0,0,1,461.7,366.1ZM455,377.6h0a6,6,0,0,0,8.2-2,5.7,5.7,0,0,0-2.3-8h0a6,6,0,0,0-8.2,2A5.7,5.7,0,0,0,455,377.6Z"/><path class="cls-2" d="M454.8,391.7l-1,1.2-15,.6,9.6,7-1,1.3-11.9-8.7.8-1,15.4-.7-9.8-7.1.9-1.3Z"/><circle class="cls-3" cx="327.5" cy="176.6" r="61.3"/><path class="cls-2" d="M437.6,319a1.6,1.6,0,0,0,1.4-2,9,9,0,0,1-3.2-.9c.3-.6-.2-1.4-.8-1.3a1.5,1.5,0,0,0-.5-2.7,3.9,3.9,0,0,0-1.5.2,1.2,1.2,0,0,1-1.4-.4c-.2-.4.6-1.5,1-1.2a.4.4,0,0,0,.2-.6,1,1,0,0,0-.7-.2.8.8,0,0,0,.5-1,.7.7,0,0,0-1-.5,5.3,5.3,0,0,1-.3-1.2c0-.4-.3-.9-.7-.9s-.9.3-1.3.2a.6.6,0,0,1-.4-.7,1.6,1.6,0,0,1,.3-.9,1,1,0,0,1-.7-.9c0-.5.9-1.1,1.4-1.2s-.1.7.2.7a1.2,1.2,0,1,0-1.4-1.9c-.1-.9-.1-1.8-.2-2.7-1.1,1-2.4-1.9-3.9-1.5s-1.1,1.1-1.5,1.8a2.2,2.2,0,0,1-2.9.7c-.8-.7-.6-4.9.4-5.1a1.6,1.6,0,0,0-1.2-2.4h.7a2.8,2.8,0,0,0-2.6-3.1,1.8,1.8,0,0,0-1.2-1.9,1.8,1.8,0,0,0-2,.9c-.2-.9-1.4-1.1-2.3-.8a27.2,27.2,0,0,1-2.5,1.1,2.3,2.3,0,0,1-2.7-2.3c.1-1.4,2.1-2.2,3-1.2-.8-1.1,1.3-2.9,2.7-2.7a.7.7,0,0,0,.7.8.6.6,0,0,0,.6-.5,1.6,1.6,0,0,0,1.7,1.5,1.9,1.9,0,0,1,1.4-2.7v-2.1c1.5,2,3.9,1,4.7-1.3a5.2,5.2,0,0,0,6.9-.6,2.4,2.4,0,0,0,3.4,1.3,2.5,2.5,0,0,0,.2-3.6l2.9-2.3a2.7,2.7,0,0,0,.8-.7c.6-1.1-.4-2.3-1.2-3.1a1.6,1.6,0,0,0,1.6-2,7,7,0,0,0-.8-1c-.3-.5-.4-1.2-.7-1.8s-1.4-.8-1.6-.2-.3-1-.5-1.5l-6,3.9a5.3,5.3,0,0,1-3.2,1.2c-1.2-.2-2.2-1.6-1.5-2.5.7,1.1,2.6.8,3.3-.3a4.6,4.6,0,0,0,.2-3.8,1.7,1.7,0,0,0,1.5-.7c-.2-.7-1.3-.8-2-.5a4.7,4.7,0,0,1-2.2.9c-1.3-.2-1.5-2.4-.3-2.8-.6-.3-1.2-.8-1.2-1.4s.7-1.1,1.1-1.7a.9.9,0,0,0-1.3-1.1,2.3,2.3,0,0,1-2.5,0,2.3,2.3,0,0,1-.6-2.8,2.9,2.9,0,0,1,2.2.4,1.8,1.8,0,0,0,.4-1.6h5a6.3,6.3,0,0,0-1-3.7c1.2-.7.7-3-.7-3.2.5-1-1.2-2.3-2-1.4l-1.3-.9-.7,1-.9-1.1a2.7,2.7,0,0,0-.8.7,1.7,1.7,0,0,1-.7-1.3,9.3,9.3,0,0,1-.5,1,2.8,2.8,0,0,1-1.7-1.1,1.6,1.6,0,0,1-2.3.5c-.8-.5-.5-2.2.2-2.8v-2.4h-6.4a1.1,1.1,0,0,1-.4-1.4,2.3,2.3,0,0,1,1.2-1.2,1.5,1.5,0,0,0-1.7-.7,4.7,4.7,0,0,0-.3-1.7,6.5,6.5,0,0,1-2.4.2,1.5,1.5,0,0,1-1.9,1.5,1.4,1.4,0,0,1,.5-2c.2-.2.5-.2.8-.4s0-3.1-1.1-2.8a2.6,2.6,0,0,0,.9-4c-1.8,0-3.1,2.7-4.6,2.6.2.4.3.9-.1,1.2s-1.4.3-2.1,0a2.6,2.6,0,0,0-2.1-.1c-.7.4-.9,1.6-2,1.7a1.4,1.4,0,0,1-1.4-1.5c.1-1.3,1.4-2.1,2.7-2.3a6.1,6.1,0,0,0,1.3-.3,3.6,3.6,0,0,0,1.5-1.7,3.9,3.9,0,0,0,.6-2.1c-.1-.7-.8-1.3-1.4-1.1a.5.5,0,0,0-.1-.7,1.2,1.2,0,0,0-1,.2c.4-.4-.3-1.2-.9-1a2.3,2.3,0,0,0-1,1.5c-.2.6-.9.7-1.5.8a1.9,1.9,0,0,0-2.2-.7,1.7,1.7,0,0,0-.1.7,1.1,1.1,0,0,0-.9-.8c-1.1-.1-1.7,1.1-2.2,2s-1.8,1.8-2.5,1a2.3,2.3,0,0,1-.8,1.6c-.5.2-1.3-.5-.9-.9s1.5-1.3,1.1-2.1a1.1,1.1,0,0,0-1.6-.3,1.5,1.5,0,0,0-.8-1.7c-.8-.4-2.6-.4-3.1.3a8.5,8.5,0,0,0-.9,2.2c-.3.7-1.3,1.2-1.8.6-.8,1.2-2.2.4-3.4,1.2a2.2,2.2,0,0,1-1.2-2.7,1.7,1.7,0,0,1,2.2-.7,2.6,2.6,0,0,1,.5-3.3,4.5,4.5,0,0,1,4.2-.6l-.3-1a2.4,2.4,0,0,0,1.7-2.7,7.3,7.3,0,0,0-1.6-3,2,2,0,0,0-2.9.7,1.5,1.5,0,0,0-1.1-1.9,1.4,1.4,0,0,0-1.6,1.5,10.1,10.1,0,0,0-3.1-2.7,4.1,4.1,0,0,0-.4,2.4l-2.5-.4c0,.6.1,1.2.1,1.7a5.7,5.7,0,0,0-4.6-.8c.2-1.1.4-1.9.6-2.9s-.3-.9.1-1.1a3.3,3.3,0,0,1,1.3-.4c.5-.2.8-.9.4-1.2a2.9,2.9,0,0,0,1.6.1,10.4,10.4,0,0,1,.8-4.6,15.1,15.1,0,0,0,3.5,1.4c0-.5.1-.9.1-1.4s1.9.9,2.6.4a1.6,1.6,0,0,0,.6-.8,17.7,17.7,0,0,0,1.5-3.1,1.7,1.7,0,0,0-1.7.1,2.2,2.2,0,0,0,0-1.4.9.9,0,0,0-1.1-.6.3.3,0,0,0-.3.3c-.4-.9-1.5-1.7-2.2-1.2a3.1,3.1,0,0,1-4.3-1.2,1.1,1.1,0,0,0-.3,1.4l-3.7-1a2.7,2.7,0,0,0-2-2.4l-2.3,1.8a5.2,5.2,0,0,0,0-4.7c.5-.2,1.1-.3,1.2-.8a1.1,1.1,0,0,1-.6-.7,2.8,2.8,0,0,0,1.4-1.2c.2-.4.2-1-.2-1.1s-.5,0-.7.1l-1.4,1.1c.2-.3-.1-.6-.5-.7l-.9.3a4.6,4.6,0,0,0-1.4,1.7c-.2.3-.3.6-.7.6l-.4-.2a1.7,1.7,0,0,0-1-.1.7.7,0,0,0-.3.9c-.2-.3-.4-.3-.7-.2a10.8,10.8,0,0,0-3.5-1,3.7,3.7,0,0,1-1.2,4.3c-.9.6-2.7.3-2.5-.8s1.2-1.1,1-1.8-1.4-1.3-.9-1.8,2.2-1.1,3.5-1.5,2.9.3,4.4.5,3.4-1,2.7-2.4h-3.2c1.1-.1,1.1-1.8.4-2.7a4.5,4.5,0,0,0-5.1-1.3,1.3,1.3,0,0,1-.7,1.9,1.7,1.7,0,0,1-1.9-1.2,2,2,0,0,0-1.1,2.1h-1.5a4.4,4.4,0,0,0,0-3.2c0,.3-.9.3-1.3-.1s-2.2-1.4-2.9-.5-.3.7-.6.9-.8.2-1.2.3-1.4,1.1-1.6,2a6.3,6.3,0,0,1-.6,2.7c-.5.8-1.8,1.1-2.3.3s-.7-1-.7-1.7a2.2,2.2,0,0,0-1.8-.3v1.5h-1.6a5.1,5.1,0,0,1-1.2,2.7,1.9,1.9,0,0,1-2.7,0c-.6-.8.3-2.2,1.2-1.8a2.7,2.7,0,0,1,.5-4.6l-1.2-1.5,1.9-1-.6-1.5,1-.7a2.6,2.6,0,0,1-1.1-2.6,5.8,5.8,0,0,1-1.8-2.3,9.1,9.1,0,0,0-2.1,1.8c-1.4-.6-1.3-2.6-1.1-4.2s.1-.5.2-.8.5-2.9.8-4.3a1.9,1.9,0,0,0,1.6-1.7,1.7,1.7,0,0,0-1.5-1.8,1.9,1.9,0,0,0,.4-2.9,1.9,1.9,0,0,0-2.9.1c-.5.7-.6,1.8-1.3,2.2a5.7,5.7,0,0,1-1.8.3c-.5.2-.8.9-.5,1.2a1.9,1.9,0,0,0-2.2.4,2.4,2.4,0,0,0-.6,2.3,5,5,0,0,0-2.8-1.2v.5a.7.7,0,0,0-.5-.4.9.9,0,0,0-1.2.7c-.3-1.1-1.5-3.6-2.6-4a1.8,1.8,0,0,0-.7-2.1,2,2,0,0,0-2.2.2c-.6.6-.9,1.6-1.7,1.7a1.7,1.7,0,0,1-1.5-.8,3.2,3.2,0,0,0-1.2-1.1c-.6-.2-1.3.1-1.3.7s1.1,1,.6,1.4-.8.3-1,.6,1,1.3,1,2.1-.9.8-1.5.8a5.1,5.1,0,0,0-.4,2.7c.7,0,.9,1,.6,1.7s-.7,1.4-.3,2l-1.5.2c.3.1-.1.6-.4.8a1.4,1.4,0,0,0,0,2.1.9.9,0,0,0-1.1.6c-.1.5.3.7.8.7a2.6,2.6,0,0,1,2.2,3.8c1.3.2,3,.7,3,2.1a2.2,2.2,0,0,1-.8,1.5c-.8,1-1.9,2.1-3.1,1.7-.7,1.7-3.6,1.8-4.5.2a12.9,12.9,0,0,1-.6-2.1c-.5-1.7-2.1-3-3.5-4.1-.1,1-.1,2-.1,3a3,3,0,0,1-2.1-3.6l-1.3,1a1.9,1.9,0,0,1,.8-2.4,5.7,5.7,0,0,1,2.6-.4,1.9,1.9,0,0,1,2.1-2.6,1.5,1.5,0,0,1,.6-2.2,4.2,4.2,0,0,1,2.5-.2,1.8,1.8,0,0,1-.4-2,1.2,1.2,0,0,0,1.8-.5,4,4,0,0,0,.3-2.2c-.2-1.3-.5-2.8-1.8-3.2h-1.3a1.9,1.9,0,0,1-.6-3.4c.3-.2.7-.3.9-.6a1.4,1.4,0,0,0-.1-1.6,10.8,10.8,0,0,0-2.8-3.9c-.2,1.3-2.1,1.7-3.4,1.3s-2.6-1.4-3.9-1.3-2.6,2-1.5,2.8h-1.3a6.2,6.2,0,0,0,.8,3.3,1.7,1.7,0,0,0-2.9,0,1.6,1.6,0,0,0,2,2c-.5.9-2.1.1-2.7.9s.4,1.7.6,2.7a2.3,2.3,0,0,1-2,2.6,7.3,7.3,0,0,1-3.2-.6,4.2,4.2,0,0,0-.2-.6c.6-1.7,1.3-3.3,1.9-4.9l-1.2-.9c.8-.8.7-2.3.4-3.3a1.3,1.3,0,0,0,.3-1.2h-.8a1.6,1.6,0,0,0,.8-1.8,1.5,1.5,0,0,0-1.8-.7c0-.7.1-1.5-.4-2s-1.6-.5-1.7.2a3.2,3.2,0,0,0-1.2-2.1c-.7-.5-1.9.1-1.7.9a1.4,1.4,0,0,0-2.3.9c-.6-.5-2.1-.3-2,.6a1.5,1.5,0,0,0,0,1.8,1.3,1.3,0,0,0-1.5.9,1.3,1.3,0,0,0,.8,1.6,1.5,1.5,0,0,0-1.1,2.4c-.5-.1-1.2-.1-1.5.3s.1.7.2,1.1a6.7,6.7,0,0,1-.1,5.2,12.2,12.2,0,0,0-2.6-.6,1.4,1.4,0,0,0,.2-.6c.3-.6.1-1.5-.5-1.4a3.9,3.9,0,0,1-1,1.9h-.9l-.4.2h-.2l1.5-3a2.2,2.2,0,0,0,.3-1.4.8.8,0,0,0-1-.8c1.2-.3,1.5-2.8.3-3s.6-1.6.8-2.3a3.8,3.8,0,0,0,.3-2.3c-.3-.7-1.3-1.2-1.9-.7a3,3,0,0,0-.4-2.3c-.4-.6-1.6-.8-1.9-.1s.1,1.8-.6,2.2-1.5-.3-2,.4-.9,1.6-1.7,1.7a9.2,9.2,0,0,0-1.6-.1c-.5.2-.7.9-1,1.4a4,4,0,0,1-2.9,2.3,1.7,1.7,0,0,1-.1,2.1c-.4.6-1.1,1-1.4,1.7s-.2,1.7.5,1.9-.9.8-.6,1.3a1.6,1.6,0,0,0,1.5.4,4.4,4.4,0,0,0,1.1,2.4,1.6,1.6,0,0,0-1.6,1.8v.2l-.7.2c-.3.2-.7.5-.7.9a2.2,2.2,0,0,0,.1,1.1,3.1,3.1,0,0,1-3.1,3.5l-3.2.3a3.2,3.2,0,0,1-1.7-.3,2.2,2.2,0,0,1-1-2.2,7.8,7.8,0,0,1,.9-2.4,2.9,2.9,0,0,1-1.9-2.5,2.9,2.9,0,0,1,1.7-2.6l-2.2-.7a1.6,1.6,0,0,0-1-.1c-.3.1-.5.4-.8.6a8.8,8.8,0,0,1-8.5,2.3,1.2,1.2,0,0,1-.8-.4c-.3-.5,0-1.1.4-1.6s2-2.9,3.1-4.3a2.7,2.7,0,0,0-5,1.2c-.7.3-1.5-.5-2.2-.2a2.7,2.7,0,0,0-.7.8,10.9,10.9,0,0,0-1.3,3.4,6.5,6.5,0,0,1-.2,2c-.2.7-.9,1.3-1.6,1a1.7,1.7,0,0,0,1.1,1.5,2.4,2.4,0,0,0-1.9,1,1.2,1.2,0,0,0,1.1,1.7l-.9,1.4c.9.1,2.2.6,2,1.5a.8.8,0,0,1-.2.5,3.5,3.5,0,0,1,1.4,1.3,4.2,4.2,0,0,1,1.6.1c.5.2.9.9.7,1.3s-.9.7-.9,1.2.3.8.7,1l1.1.6a.7.7,0,0,1,.4.5c.1.1,0,.2,0,.4a4.6,4.6,0,0,1-1.1,2.2,2.5,2.5,0,0,1-2.3.8,1.7,1.7,0,0,1-1.4-1.8,1.2,1.2,0,0,1-1.9-.4c0-.3.1-.6-.1-.9s-1-.2-1.4.1-.9.7-1.4.4a1.1,1.1,0,0,1,.8-1.4,2.5,2.5,0,0,1,1.7.1.9.9,0,0,1,.5-1.3c.8-.3,1.6.4,2.2.8a6.8,6.8,0,0,0-2-3.7,1.9,1.9,0,0,1-1.2.4c-1-.1-1.6-1.7-.7-2a2.8,2.8,0,0,1-3-1.3,4.5,4.5,0,0,1-1.2,2.7,1.7,1.7,0,0,1-1.2.3c-.2-.5-.6-1.1-.4-1.6a.5.5,0,0,1-.9-.3,1.2,1.2,0,0,1,.4-1.1,3.3,3.3,0,0,0,.6-1c.1-.4,0-.9-.4-1a1.1,1.1,0,0,0-.9.7c-.5.7-1.5,1-1.5,1.7a2.3,2.3,0,0,0-1.7,2.3h0l-.9.2a1.7,1.7,0,0,1-.3-1.2h-2.3a8.3,8.3,0,0,0-.4-1.5c-.4.7-1.2,1.5-2,1.3s-1.1-1.8-1.4-2.8a3.3,3.3,0,0,0-3-2.1,2.9,2.9,0,0,0-2.8,2.2,4.4,4.4,0,0,1,1.9.7c.4.3.2.9-.2,1.2a4.5,4.5,0,0,0-1.2.6,2.2,2.2,0,0,0-.6,1.9,4.4,4.4,0,0,0,.3,2,1.2,1.2,0,0,0,1.8.4c-.3.9-.7,1.9-1.1,2.8s-.1.5-.1.8a1.2,1.2,0,0,0,.5.5,5.7,5.7,0,0,0,4.6.9,2.5,2.5,0,0,0-1.9,1.9,5.3,5.3,0,0,0,0,2.8c.1.8.5,1.9,1.3,1.9a1.4,1.4,0,0,0-1.1,1.3,1.3,1.3,0,0,0,1.3,1.2,1.4,1.4,0,0,0-.8,1.6c-1.1-.4-3.2,2.5-2.9,3.6a3.4,3.4,0,0,1-2.7-1,2.1,2.1,0,0,1,1.1-1.4,1.3,1.3,0,0,1-1.5-1.1,1.2,1.2,0,0,0-1,.2,13.4,13.4,0,0,1-.1-2c-.2.2-1.9-.3-2-.1a1.3,1.3,0,0,0-.8-1.5,1,1,0,0,0,.9-1.5,1.1,1.1,0,0,0-1.4-.4,1,1,0,0,0,.3-1,3.6,3.6,0,0,0-3.7-1.5,2.1,2.1,0,0,0-.6-2,1.5,1.5,0,0,0-2,0,1.1,1.1,0,0,0,.2,1.8,1.1,1.1,0,0,0-1.2.9,1,1,0,0,0,.9,1.1,1,1,0,0,0,.3,1.9h-1.4c.2.7-.4,1.2-.7,1.8s0,1.6.6,1.5-1.5.1-1.8.7.2.8.8.9c-1-.1-2.1.1-2.2,1a1.6,1.6,0,0,0,.3.9,1.9,1.9,0,0,0,1.1,1.2.9.9,0,0,0,1.2-.7c.5-.1.7.7.5,1.2s-.5,1.2-.3,1.7,1.4.4,2,0,1.1-1.2,1.9-1.1a8.9,8.9,0,0,1,.1,4.3,9.6,9.6,0,0,1,3.3-.6,4.1,4.1,0,0,1-5,2.3,3.7,3.7,0,0,1,.7-2,.8.8,0,0,1-.8-.9c-.8-.9-2.3.9-3.2.1s-.2-.5-.4-.7a1,1,0,0,0-1.4-.4,1.1,1.1,0,0,0-.6,1.3,2.5,2.5,0,0,1-1.3-1.7,1.2,1.2,0,0,1,1.1-1.4c-.6,0-1.3-.2-1.4-.8s0-.5,0-.7a3.6,3.6,0,0,0-.4-1.1c-.2-.4-.1-1,.3-1.1a1.4,1.4,0,0,0-1.7-.5,1.3,1.3,0,0,0-.9,1.5c-.1-.8-1.3-.8-1.7-.1s-.1,1.4.2,2.1l.2.2-2.1.2a2.1,2.1,0,0,0-1.7.6,1.1,1.1,0,0,0-.1,1,1.6,1.6,0,0,0-1.5-.1V200h-2.1a.8.8,0,0,0-.7.2.8.8,0,0,0-.2.5c-.3,1.3-.7,2.6-1,4a2.9,2.9,0,0,0-.1,1.3,1.5,1.5,0,0,0,2.3.3,3.1,3.1,0,0,0,.9-1.8,1.5,1.5,0,0,0,.4,1.1,2.6,2.6,0,0,0,1.4.9l5.4,2.2a2.2,2.2,0,0,0-.3,3.1,2.3,2.3,0,0,0,2.2.6,1.2,1.2,0,0,0-.1,1,2.9,2.9,0,0,0,1.5,1.6,9.5,9.5,0,0,1-2.9.2,2.5,2.5,0,0,0,.1,1.2,1.8,1.8,0,0,0-1.9.6c-.7-.1-1.8-.2-2,.5a4.1,4.1,0,0,0-2.1-1.8.9.9,0,0,0-.3.6,1.4,1.4,0,0,0-1-1.1,1.2,1.2,0,0,0-1,.2.6.6,0,0,0-.1-.7h-1.1a14.6,14.6,0,0,0-5.9.8l-.5.3a3.2,3.2,0,0,0-.2-1.5c-.5-1-2.3-1.3-1.8.1a1.2,1.2,0,0,0-2.1-.1.9.9,0,0,0-1.3.5,2.9,2.9,0,0,0,.1,1.6c-.3-.6-1.3-.4-1.7.2a2.7,2.7,0,0,0-.2,2c-.5-.2-1.1.3-1.3.9a3.3,3.3,0,0,0,.1,1.7l-.9.3-.7-.5a10.1,10.1,0,0,0,.7-1.5,6.6,6.6,0,0,0-2.3-2.4c-1-.4-2.5,0-2.8,1a5.3,5.3,0,0,0-2.6-3.1,23.9,23.9,0,0,0-1.3,2.1,2.2,2.2,0,0,0-2.8,2.5,3.2,3.2,0,0,0-2.4-1.5l-.3,2.7-1.7-.5-.7,1.9a2.8,2.8,0,0,0-4-.2,2.9,2.9,0,0,0-.2,4,4.6,4.6,0,0,1,3.8,1.6,9.2,9.2,0,0,0-1.8,3,10.6,10.6,0,0,1-5.2-2.2c-1.3-1.4-1.5-4,0-5a6.5,6.5,0,0,0-3.3-3.6,3.2,3.2,0,0,0,.1,3.4A1.2,1.2,0,0,0,105,225a9.2,9.2,0,0,0-5-1.8,35.1,35.1,0,0,1,3.5,9,2.6,2.6,0,0,0-.7,4c.5.5,1.1.8,1.2,1.5s-.9,1.4-1.6,2a3.4,3.4,0,0,0-.9,1.9l-.7.3c-.9.6-2-.6-2.5-1.6s-1.7-2.1-2.6-1.4-.5,1.1-.5,1.7a3.8,3.8,0,0,0-2.1-.1,1.4,1.4,0,0,0-1.1,1.6c-.8.1-1.7-.5-2.4-.1s-.5.6-.7,1l-1.2,3.1a9.1,9.1,0,0,1-.9,1.7c-.7.7-1.7,1-2.4,1.7a1.7,1.7,0,0,0-.5,2.5c.3.2.8.4.9.7s-.1.8-.3,1.1a3.4,3.4,0,0,1-2.5.9,13,13,0,0,1-2.1-.4,1.8,1.8,0,0,0-1.9.8.9.9,0,0,0,.6,1.5,1.6,1.6,0,0,0-.8,2.7,3.3,3.3,0,0,0,2.2.1l2.6-.4a6.6,6.6,0,0,1-.3,2.4c-.2,1.2-.5,2.4-.7,3.6a2,2,0,0,0,0,1.7,1.3,1.3,0,0,0,1.8.2,1.6,1.6,0,0,0,2-.4,17.1,17.1,0,0,0,1.3,2.3c.4.5,1.1,1.1,1.7.8a1,1,0,0,0,.2-1.6,2.7,2.7,0,0,0-1.5-1,1,1,0,0,0,.7-.9,1.4,1.4,0,0,1-1.4-1.3c0-.4.1-.8-.1-1.1a1,1,0,0,0-.5-.4c-.5-.6-.2-1.6.3-2.3s.6-.9,1-.7.2.9.4,1.4a1.1,1.1,0,0,0,1.7.3,2.4,2.4,0,0,0,.7-1.8,15.9,15.9,0,0,1,2,.7c.7.1,1.7-.4,1.5-1.1a2,2,0,0,0,2.1,1.4,1.9,1.9,0,0,0,1.6-1.9,5.4,5.4,0,0,0,0-1.8,1,1,0,0,0,1,.2c-.1-1.4-.1-2.8-.2-4.2h1.2a2,2,0,0,0-.4-1.6,3.3,3.3,0,0,1,1.6-1.5,1.2,1.2,0,0,1,1.7,1,2.4,2.4,0,0,0-.2.9c0,.7.9,1,1.6.7a3.1,3.1,0,0,0,1.2-1.7,1.7,1.7,0,0,0,2.1-2.3H108a1.5,1.5,0,0,0,.4-1.4,6.6,6.6,0,0,0,3.1-.9,3.1,3.1,0,0,0,.1,1.9,4.5,4.5,0,0,0,1.5-2.1,1.9,1.9,0,0,0,2.1,1.1,1.2,1.2,0,0,0,.8-.4,3.7,3.7,0,0,0,.1,3.4,2.9,2.9,0,0,0-3.6,2.1,2.6,2.6,0,0,0-2.2-.9,1.5,1.5,0,0,0-1.2,1.9,1.1,1.1,0,0,0,2,.1,1.3,1.3,0,0,0,1.1,1.7,3.2,3.2,0,0,0,2.1-.6,1.8,1.8,0,0,0,2,2.1c-.3.8.6,1.6,1.4,1.5a1.9,1.9,0,0,0,1.6-1.8,4,4,0,0,0-.3-2.4,2.8,2.8,0,0,0,3.3-1.3,2.7,2.7,0,0,0-.8-3.4,1.5,1.5,0,0,0-1.4-.5c-.7-.8-.4-2,0-2.9a7.1,7.1,0,0,0,.8-1.8,3,3,0,0,1,2.1,0c.9.3,1.4,1.6.6,2.2h1.7a9.8,9.8,0,0,1-.4,4.5,1.3,1.3,0,0,1,1.7,1.8c-.5.6-1.4.9-1.6,1.6s-1.7.7-1.8,1.4h-1.8a1.6,1.6,0,0,0,.9,2.4,3.1,3.1,0,0,1-3.8,2.8c-.6-.2-1.3-.6-1.8-.3s-.6.8-1,.9-.7,0-1.1,0h-.4a1.3,1.3,0,0,0-.3-1.1,4.4,4.4,0,0,0-1.5-1,1.1,1.1,0,0,0-.2-1.9,1.2,1.2,0,0,0-1.4,1.3,4.5,4.5,0,0,0-1.4-2.4c-.7-.5-2-.5-2.3.4a1.9,1.9,0,0,0-2.1-.5,1.8,1.8,0,0,0-.8,2,3.2,3.2,0,0,0-3,.5,1.7,1.7,0,0,0,.1,2.7,2.2,2.2,0,0,0-2.1.5c-.4.7,0,1.7-.3,2.4s-1.3,1.1-1.6,1.8.9,1.9,1.9,2.3a2,2,0,0,0-1.3,2.9,3.1,3.1,0,0,0,.5,1,4,4,0,0,1-2.6.6,6.1,6.1,0,0,0,.5,1.2,1.2,1.2,0,0,0-1.6,1.2,1.8,1.8,0,0,0,1.8,1.4,4.9,4.9,0,0,0,2.2-1c.6-.5,1.1-1.1,1.8-1.6s.3,1.3.9,1.4a2,2,0,0,0,1.7-.9c.5,1.2,2.9.5,3.1,1.8s.1.2,0,.2h0a1.1,1.1,0,0,0-1.3-.2l-.3.5h-1.8a1.1,1.1,0,0,0-.7.3.6.6,0,0,0,.1.7l.7.2h.4c.1,0,.1.1.1.3a3.7,3.7,0,0,0-1.5,0,1.3,1.3,0,0,0-.8,1.6,7.8,7.8,0,0,0-3.7-1.3c-.6-.1-1.3-.1-1.6.4a.4.4,0,0,0,0,.5,2.6,2.6,0,0,0-2.7,1.2,3,3,0,0,0-3.5-1.2,3.2,3.2,0,0,0-1.8,3.3,2.1,2.1,0,0,0-2.6.4,2,2,0,0,0,.3,2.6c-1.2-.5-3-.9-3.6.3a1.5,1.5,0,0,0-2.1-.1,1.4,1.4,0,0,0,.1,2.1c-1.9.9-3.3,2.9-2.7,5a2,2,0,0,0-2.9.8,2,2,0,0,0,1,2.5c-.1.1-.2.1-.2.2a.8.8,0,0,0-.1.8,3,3,0,0,0,3.2,2.3A2.9,2.9,0,0,0,77,303l.3.7c-1,0-1.3-1.1-2.3-1.4a1.3,1.3,0,0,0-1.2.3,1.7,1.7,0,0,0-.2,1.2c.1.2.2.4.1.5s-.2.2-.3.3a.7.7,0,0,0-.2.7.8.8,0,0,1,.2.4c.1.3-.2.5-.5.6h-.8a1.6,1.6,0,0,0-.7,1.2c-.1.4-.2.8.1,1.1a.4.4,0,0,0,.5.1,1.4,1.4,0,0,0-.2,1.4.7.7,0,0,0,.8.4l.3-.4a29,29,0,0,1,1.9-2.9,1.4,1.4,0,0,0,.2-.7c.1-.4,0-1,.4-1.2s.9.5,1.4.4l.3-.3.8-.9h0a2.4,2.4,0,0,0,.9.6c0,.9-1.2,1-2,1.5a2,2,0,0,0-.8,2.6,2.1,2.1,0,0,0,2.7.8,3.8,3.8,0,0,1-1.1,1.8,1.8,1.8,0,0,0-.8,1.3c0,.1.1.1.1.2a.7.7,0,0,0-.6.4,1,1,0,0,0,.6,1.5,5.8,5.8,0,0,0-.3,3.9.5.5,0,0,0,.3.5c.3.1.6-.2.9,0s.1.4.1.7l-.9,3.2a3.8,3.8,0,0,0,4.5-1.5,4.5,4.5,0,0,0-.6,2.7c.3.9,1.5,1.6,2.2,1a1.8,1.8,0,0,0,.2,2.2c.4.7,1.1,1.2,1.5,2a7,7,0,0,0,.9,1.7c.4.5,1.4.6,1.7,0s-.3-1.1-.8-1.6-.6-1.4-.1-1.6h.7a1,1,0,0,0,.6-1.2,4.6,4.6,0,0,0,2.6,1.5H91c.7-.3.1-1.4-.6-1.8a3.2,3.2,0,0,1,2.4-1.5,3.8,3.8,0,0,1-.1,1.5c.7.7,2,.2,2.5-.6a4.4,4.4,0,0,0,.2-3c.6.2,1.1-.6.9-1.2a2.4,2.4,0,0,0-1.3-1.1,3.4,3.4,0,0,1-1.5-.9c.6.4,1.3-.3,1.3-.9a2.6,2.6,0,0,0-1.1-1.6c-.5-.4-1.1-.8-1.2-1.5a1,1,0,0,1,.5-1.1,1.7,1.7,0,0,1-1.6-1.6,1.6,1.6,0,0,1,2.2-1.5,6,6,0,0,1-.4-2.9,2,2,0,0,1,1.9-1.9.9.9,0,0,1-.2-1c.7.3,1.5-.3,1.8-1.1a16.4,16.4,0,0,0,.2-2.2,2,2,0,0,1,1.2-1.8,1.1,1.1,0,0,0,1.2.3,7.9,7.9,0,0,1-1,3.7,2.7,2.7,0,0,1,1.4.4,4,4,0,0,1-1.6,1.8c.7.2.4,1.9,0,2.4s-1.1,1.2-1.2,1.9a1.3,1.3,0,0,0,2,1,1.6,1.6,0,0,0,1.6,2.1,1.3,1.3,0,0,0-.9,1.1,1.2,1.2,0,0,0,1,1.3c.6.1,1.1-.4,1.6-.8s-.6,1.4-1.2,2.1-.8,1.8,0,2.1a3.7,3.7,0,0,0-1.8.4,1.3,1.3,0,0,0-.7,1.5c.1.6.9,1,1.3.7a1.4,1.4,0,0,0-.1,1.9,1.3,1.3,0,0,0,1.2.4,5.7,5.7,0,0,0-1.4,1.3,3.7,3.7,0,0,0-.9,1.6,1.3,1.3,0,0,0,.6,1.6,1.8,1.8,0,0,0,1.8-.4c0-.1,0-.1.1-.2L99,332.8c-1.2,2-2.6,4.5-2.6,7.3s1.9,5.7,3.7,8.2a12.7,12.7,0,0,0,1.3,1.9c5.1,7.8,5.4,17.7,5.7,27.2l.3,7.5h1.8c-.2-2.4-.3-5-.3-7.4-.4-9.8-.7-19.9-6.1-28.2l-1.3-1.9c-1.7-2.4-3.3-4.6-3.3-7.2s1.2-4.5,2.3-6.4l4-7h.1a2.3,2.3,0,0,0,1.1-1.3,1.8,1.8,0,0,0,1.1,1.3c.8.3,1.9-.5,1.6-1.4l1.4,1.1a11.1,11.1,0,0,1,.2-1.7c.5,1,2.2,1.4,2.3.3a2,2,0,0,0,1.3.6.7.7,0,0,0,.7-1,3,3,0,0,0,4.1-2.6.9.9,0,0,0,1.1,0,3.7,3.7,0,0,1,1.2.7,47.3,47.3,0,0,0,4.6,3.2l.5,1.4a1.6,1.6,0,0,1-.3.9,20.3,20.3,0,0,0-1,4.9,24.2,24.2,0,0,0,.7,4.7,14.9,14.9,0,0,1,.8,4c0,2.5-1.2,4.8-2.4,7.2s-1,2-1.4,3a23.3,23.3,0,0,0,4,23.6.8.8,0,0,0,1.1,0h.2a.8.8,0,0,0,0-1.1,21.6,21.6,0,0,1-3.7-21.8l1.4-2.8c1.2-2.5,2.5-5.1,2.5-8a17.8,17.8,0,0,0-.8-4.5,20.5,20.5,0,0,1-.7-4.2,17.8,17.8,0,0,1,1-4.3l.3-1,8,6c.6.5,1.2.4,2.1.4l2.8-.2a9.7,9.7,0,0,1,2.9.2,5.1,5.1,0,0,1,1.5.7,18.4,18.4,0,0,1-.5,2.5,21.9,21.9,0,0,1-1.2,3.3,34,34,0,0,0-1.2,3.4c-1.7,6.2.7,12.3,2.9,18.2s3.8,10.1,3.3,15.2c0,.4.2.8.6.8h.3a1,1,0,0,0,.9-.7c.5-5.5-1.5-10.8-3.5-16s-4.3-11.5-2.8-17.1a26.7,26.7,0,0,1,1.2-3.3,34,34,0,0,0,1.2-3.4,11.6,11.6,0,0,0,.4-1.8l4.9,3.7a2.6,2.6,0,0,0,2.4.3l1-.5a12.7,12.7,0,0,0,.9,11c2,3.7,5,6.4,8,9.1l.3.2a12,12,0,0,1,2.4,2.6c1.5,2.2,1.5,5,1.5,7.9a21.2,21.2,0,0,0,.9,7.5,10.4,10.4,0,0,1,.4,1,7.3,7.3,0,0,1,.7,1.9c.3,1.5-.5,3.1-1.3,4.7A13.1,13.1,0,0,0,167,390a.7.7,0,0,0,.8.8h.3a.7.7,0,0,0,.6-.7,10.2,10.2,0,0,1,1.4-3.9c.9-1.8,1.8-3.7,1.4-5.8a7.8,7.8,0,0,0-.8-2.3l-.4-1c-.8-2-.8-4.3-.8-6.8s0-6.2-1.7-8.9a12.9,12.9,0,0,0-2.8-2.9l-.2-.2c-2.9-2.6-5.9-5.2-7.7-8.6s-2-7.9-.2-10.6l6.8-3.8c2.5-1.1,5.4-1,8.3-.5-.3,1.3-.7,2.6-1.1,3.9-.9,2.9-1.8,5.8-1.6,8.9a24.7,24.7,0,0,0,2.2,7.6,45.1,45.1,0,0,1,1.7,5.2,28.6,28.6,0,0,1,.3,8.8c0,1.2-.1,2.4-.1,3.6-.1,5.2,1.1,9.2,3.5,11.8a.8.8,0,0,0,1.1,0l.2-.2a.9.9,0,0,0,0-1c-2.1-2.3-3.1-5.9-3.1-10.6,0-1.2.1-2.4.2-3.5a36.3,36.3,0,0,0-.4-9.3,35.4,35.4,0,0,0-1.8-5.5,22.5,22.5,0,0,1-2.1-7,24.4,24.4,0,0,1,1.6-8.3c.4-1.3.8-2.7,1.1-4.1h0l5.7,1.1h1l-.5.5c-1.5,1.4-2.6,3.7-1.5,5.7a8.6,8.6,0,0,0,.7,1l.5.6a7.2,7.2,0,0,1,.6,2.9l.4,7.7c.1,3,.3,6.4-.8,9.4v.4c-.5,1.4-1.1,3-.2,4.5a5.5,5.5,0,0,0,1,1.1l.7.7a4.7,4.7,0,0,1,.3,1.7l.2,7.9a.7.7,0,0,0,.7.7h.3a.8.8,0,0,0,.7-.8l-.2-7.9a4.9,4.9,0,0,0-.5-2.5,5.7,5.7,0,0,0-1.1-1.1l-.6-.7c-.5-.7-.1-1.9.3-3l.2-.4c1.2-3.3,1-6.9.8-10.1l-.4-7.7a7.3,7.3,0,0,0-.8-3.7l-.6-.8-.6-.7c-.6-1.2.2-2.7,1.2-3.6a8.6,8.6,0,0,1,1.8-1.4l.8-.6,1.4-.3a14.1,14.1,0,0,1,7,1l-1,.6a10.9,10.9,0,0,0-4.4,6.5,24.5,24.5,0,0,0-.2,6.6c.1,1.1.2,2.1.2,3.2a2.2,2.2,0,0,0,.2,1c.1.4.4.6.7.9a12.4,12.4,0,0,0,3.9,2.2l.4.2a1,1,0,0,1,.1.3,70.1,70.1,0,0,1,.8,10.2.7.7,0,0,0,.7.7h.3a.7.7,0,0,0,.7-.7,53.1,53.1,0,0,0-.8-10.5,3,3,0,0,0-.4-1.1,4.6,4.6,0,0,0-1.3-.8,9.2,9.2,0,0,1-3.3-1.9l-.2-.2v-.3c-.1-1.1-.1-2.3-.2-3.3a17.8,17.8,0,0,1,.1-6.1,9.6,9.6,0,0,1,3.7-5.5l2.3-1.1c2.5,1,5.1,2,7.8,1.9h.5c-.2.6-.3,1.2-.6,1.9l-.4,1a12.4,12.4,0,0,0-1,2.9,11.8,11.8,0,0,0,.8,4.9,16.6,16.6,0,0,1,.6,2.1,18.7,18.7,0,0,1,.1,5.3v.7a73.9,73.9,0,0,0,.6,15.6.8.8,0,0,0,.9.6h.2a1,1,0,0,0,.7-.9,70.1,70.1,0,0,1-.7-15.2v-.7a22.7,22.7,0,0,0-.2-5.8,19.5,19.5,0,0,0-.6-2.3,8.7,8.7,0,0,1-.7-4.1,8.5,8.5,0,0,1,.8-2.4,11.7,11.7,0,0,0,.5-1.1,12.8,12.8,0,0,0,.7-3.4l5.7-2.5a4.4,4.4,0,0,0-.4,2.5,23,23,0,0,0,.6,2.8,12.1,12.1,0,0,1,.5,1.4,10.4,10.4,0,0,1-.5,5.8,3,3,0,0,0-.4.8,7.6,7.6,0,0,0-.8,2.1,8.7,8.7,0,0,0,.1,3.6v.5a39.4,39.4,0,0,1,.3,9.7.8.8,0,0,0,.7.8h.3a.8.8,0,0,0,.8-.7,48.8,48.8,0,0,0-.4-10.1v-.6a6.8,6.8,0,0,1-.2-2.8,6.1,6.1,0,0,1,.7-1.7,3.6,3.6,0,0,1,.4-.9,11.6,11.6,0,0,0,.6-6.9c-.2-.5-.3-1-.5-1.5a12,12,0,0,1-.6-2.4,2.7,2.7,0,0,1,1-2.5l2.2-.4a4.9,4.9,0,0,0-.6,2.8v6.8a2.4,2.4,0,0,0,.3,1.3,2.7,2.7,0,0,0,.8.7h.1a2.3,2.3,0,0,1,.5,2v.4a5.4,5.4,0,0,0,0,2.2.7.7,0,0,0,1.1.5h.3a.7.7,0,0,0,.3-.8,9.6,9.6,0,0,1,0-1.7v-.3q.1-2.6-1.2-3.6l-.3-.2h-.2v-7.2a3.4,3.4,0,0,1,.4-1.9l.8-.5,2.5-1.3h.3l1.4.2c.1,1.6.3,3.2.5,4.8s.5,2.5.8,3.8c.9,4.3,1.9,8.8.3,12.7a18.6,18.6,0,0,1-1.8,3.4,25.7,25.7,0,0,0-1.8,3.3c-2.1,4.9-.9,10.7.2,15.2a.8.8,0,0,0,.9.5h.3a.8.8,0,0,0,.5-.9c-1.2-5.2-2-9.9-.3-14.1.5-1,1.1-2,1.7-3a24.7,24.7,0,0,0,1.9-3.6c1.8-4.5.8-9.2-.2-13.8-.3-1.2-.5-2.5-.7-3.7a27.3,27.3,0,0,1-.5-4,19.5,19.5,0,0,0,2.3.6,8,8,0,0,1,3.1.9,6.7,6.7,0,0,1,1.4,1.9l3.9,7.5a7.8,7.8,0,0,1,.5,1.4,4.1,4.1,0,0,1-.2,2.2,26.5,26.5,0,0,1-2,4.9,5.2,5.2,0,0,0-.9,2,4.4,4.4,0,0,0,.2,2.3c1.7,8,1.1,16.5,2.8,24.4H234a10.8,10.8,0,0,0-2.8,8c-2.8,1.7-6.8,3.9-7,3.5a22.2,22.2,0,0,0-3.5-6.4,43.3,43.3,0,0,1,1.9,7.9l-4.9-5a19.9,19.9,0,0,1,2.2,5.9l-.4.2-2.5-3.5.6,3.2a60.5,60.5,0,0,0-3.2-5.5c.3,1.7.7,3.4,1,5.1a15.6,15.6,0,0,0-4.2-7.9c1.2,2.7,2.3,5.4,3.2,8.1a2,2,0,0,1-2-1.1,2.7,2.7,0,0,1-1.3,1.3l-2.1.8h-.1a4.1,4.1,0,0,0-1.9.4c-4.4.6-9.3-.1-13.3,1.8H193a18,18,0,0,0-3.8,1.6,14.8,14.8,0,0,1-3.6,1,3.3,3.3,0,0,1-2.2-.3,8.3,8.3,0,0,0-2.7-.3c-.7.1-1.3.5-2,.6h-9.2a25.7,25.7,0,0,0-4.8,0c-2,.5-3.9,1.3-5.9,1.6l-2.1.7-2.4.4a22,22,0,0,0-3.6,1.3,10.7,10.7,0,0,1-5,.7c-2.5,0-4.8-.5-7.3-.4a13.2,13.2,0,0,0-3.3.8l-1.5.5a12.5,12.5,0,0,1-4.3-.2c-1-.3-2.3-1.4-3.4-.9a13.9,13.9,0,0,1-3.6,1.2,18.4,18.4,0,0,1-6.2.2c-1-.1-2-.1-3-.3a5.7,5.7,0,0,0-2.6,0h-2.1c-1.8,0-2.7-.3-4.6.4l-1,.4a4.3,4.3,0,0,1-1,.9l-1,.4h-.2a.1.1,0,0,0-.1.1h30.9c1.1,0,2.1.1,3.2,0s1.9-.4,3.1-.4a30.4,30.4,0,0,0,7.4-.5l1.5-.3,2.6-.6a18.6,18.6,0,0,1,3.3-.4h7.1a23.3,23.3,0,0,0,3.8-.4,19.7,19.7,0,0,1,4.2-.1,27.2,27.2,0,0,0,5.7-.1,29.7,29.7,0,0,1,4.2-.3h12.9a22,22,0,0,0,4.3-.9c2.8-.4,6.1,0,9,0h6.4c3.1,0,5.9-1.8,9-1.8a38.8,38.8,0,0,1,6.8.4l2.8.4H231l1.5.5h1.7c1.2.1,2.1.3,3.3.3a29.3,29.3,0,0,1,2.9.5c1.6.1,3,.4,4.6.4a22.9,22.9,0,0,0,5.8-1.1c2.9-.8,6.5-.3,9.5-.2s5-.9,7.6-.9,3.9-.9,5.9-.9h7.9c1.5,0,3.4-.4,4.9-.1l1.3.5a11.3,11.3,0,0,0,2.6,0h3.7c2.7,0,5.2.9,7.8.9a19.3,19.3,0,0,0,3.4,0,19.7,19.7,0,0,1,3.5-.4h9.4a20.6,20.6,0,0,0,4.3-.1c1.4-.4,2-1.3,3.5-1.3h4.4c1.5,0,2.8.8,4.3.9a61.6,61.6,0,0,0,7.5.5c4.4,0,8.8-.1,13.1,0,1.3,0,2.4.4,3.6.4l2,.2a10.2,10.2,0,0,0,3.1.3,41.7,41.7,0,0,1,6.1.4,24.5,24.5,0,0,0,3.8.4h2.9a23.3,23.3,0,0,0,3.7-.4c2.5-.2,5.2,0,7.8,0h9.1c.4.1.6.3,1,.3s2.1,0,3.1.2a29.6,29.6,0,0,0,7.3.4h1.8a7.3,7.3,0,0,0,2-.5c.4-.1.9.1,1.3-.1h.7l.4-.5.2-.3-.3-.2a1.6,1.6,0,0,0-.7,0c-.5.2-1.1-.3-2-.3s-1.5-.3-2.4-.3h-6.7a41,41,0,0,1-4.9-.6,16.5,16.5,0,0,0-3.1-.4l-2.1-.4h-1.3c-1.9-.1-3.5-1.1-5.5-1h-5.6a13.4,13.4,0,0,1-4.9-.5,8.9,8.9,0,0,0-2.6-.9h-4.8a18.7,18.7,0,0,1-4.7-.4,56.2,56.2,0,0,0-5.7-.9h-2a26.6,26.6,0,0,1-6.3-.2h-.4c-1-.2-1.9-.7-3-.9a19,19,0,0,0-3.4-.1c-1.3,0-3.3.4-4.5-.1s-1.6-1.3-2.8-1.6H325.1a19.4,19.4,0,0,0-3.3.7,19.4,19.4,0,0,1-8.3,0,17.6,17.6,0,0,0-4.5-.7,14.2,14.2,0,0,0-2,.4h-1.4a15.6,15.6,0,0,0-4.8-.4l1.8-.4a8.3,8.3,0,0,0-3.5-.2,4.5,4.5,0,0,1,3.1-1.2,10.2,10.2,0,0,0-6.2.8h-.1l1.6-1.4a3.5,3.5,0,0,0-2.4,1,2.1,2.1,0,0,1-.9-1.8l-.3,1V392a6.5,6.5,0,0,1-5.8,5.2h-1.7a9.1,9.1,0,0,0-3.7-.8,32.3,32.3,0,0,1,1.7-8.2l-1.8,3.7-1.5-4.4c-.9,2.8-1.8,5.5-2.6,8.3h-.4a17.5,17.5,0,0,1-1-7.5,29.2,29.2,0,0,0-.9,7.3h0c-.4-1.2-.7-2.3-1.1-3.4V389a7.1,7.1,0,0,1,1.3-4,4.9,4.9,0,0,0-2.3,2.8,6.5,6.5,0,0,1,.3-2.8c-1.1,1.1-1.2,2.8-1.2,4.3a8.9,8.9,0,0,0-.3-1.4,13.4,13.4,0,0,1-.5,3.5l-1.2-3.9a25.3,25.3,0,0,0-.1,2.8l-3.8-4.2a6.4,6.4,0,0,1-1.8-2.5,6.6,6.6,0,0,1-.1-2.8c.1-2.2.3-4.4.5-6.6.4-5.5-2.8-11.2-4.1-16.6s-3-7.9-3.3-11.9c-.2-2.1-.3-4.3-.5-6.5a9.7,9.7,0,0,1,3.5-8.9l5.9.4,1.3,7a65.3,65.3,0,0,1,1.5,13.3v1.8c-.2,3.4-.3,7,1.5,9.8a.9.9,0,0,0,1.3.2h0a.8.8,0,0,0,.2-1.1c-1.5-2.4-1.4-5.7-1.3-8.8,0-.7.1-1.3.1-1.9.1-4.6-.8-9.2-1.6-13.6l-1.2-6.6,4.9.2c.4,0,.3.2.7.5l6.4,4.3,1.4.8a39.2,39.2,0,0,0,.3,8.4c.1,1,.3,1.9.4,2.9.6,3.5,1.2,6.8.2,10v.3a4.3,4.3,0,0,0-.4,2.5,4.9,4.9,0,0,0,1.5,2.6l.7.8c1.6,2,1.1,5.1.4,7.9s-1.3,5.8-.2,8.6a.9.9,0,0,0,1.3.4h0a.9.9,0,0,0,.3-1.1c-.9-2.2-.2-5.1.4-7.5s1.2-6.8-.8-9.4l-.8-.9a4.1,4.1,0,0,1-1.1-1.7,3.2,3.2,0,0,1,.3-1.6v-.4c1.2-3.5.6-7.2-.1-10.8-.1-1-.3-1.9-.4-2.8a44.6,44.6,0,0,1-.3-7.3l.6.2a10.3,10.3,0,0,0,3,.4,49.7,49.7,0,0,0,10.2-1,9.7,9.7,0,0,1,1.4,5,42.6,42.6,0,0,1-.9,10.7,9.4,9.4,0,0,1-.4,1.6,38.5,38.5,0,0,0-.8,4.9c-.3,3.5.7,6.9,1.6,9.9a.8.8,0,0,0,1.1.6h0a.9.9,0,0,0,.6-1.1,24.6,24.6,0,0,1-1.6-9.3,40.4,40.4,0,0,1,.8-4.6,9.4,9.4,0,0,0,.4-1.6,42.1,42.1,0,0,0,.9-11.2,11.2,11.2,0,0,0-1.3-5.3l5.4-1.7c2,4.9,1.4,10.4.7,16.1s-1,8.9-.3,13.2a.9.9,0,0,0,1.1.7,1,1,0,0,0,.7-1c-.7-4.1-.2-8.5.3-12.7s1.2-11.6-.9-17q3.2-1.2,6.3-2.7l.5,16.4a28.6,28.6,0,0,0,.6,6.5l.3,1.3a11.3,11.3,0,0,1,.6,3.1,14.1,14.1,0,0,1-.9,3.2v.4a41,41,0,0,0-1.8,21.4,1,1,0,0,0,1.1.7h0a1.1,1.1,0,0,0,.7-1.1,39.4,39.4,0,0,1,1.6-20.4l.2-.4a11.8,11.8,0,0,0,.9-3.8,10.9,10.9,0,0,0-.6-3.6l-.3-1.2a31.8,31.8,0,0,1-.6-6.2l-.5-17.1c2.8-1.4,5.6-2.8,8.3-4.3a1.4,1.4,0,0,0,1.2-.4,3.7,3.7,0,0,0,.6,2.9c.4.6,1.6.9,1.7.2a1.7,1.7,0,0,0,2.4-.8,5.3,5.3,0,0,0,.1-2.8c.7.4,1.6-.3,1.8-1a4.2,4.2,0,0,0-.5-2.4,2.5,2.5,0,0,0,.4-2.5,3,3,0,0,0,2.8-2.5l1.5,1.4a11.1,11.1,0,0,1,.2,1.7,2.4,2.4,0,0,0-.5,1.8,4.2,4.2,0,0,0,.3,1.2h0a19.1,19.1,0,0,1-1.5,4.4,5.4,5.4,0,0,0-.5,1.1,47,47,0,0,0-3.5,12.7,12.8,12.8,0,0,0,.1,3.9,11.6,11.6,0,0,0,1,2.8l.6,1.3c1.5,3.7,1.1,7.9.6,12,0,.5-.1,1-.1,1.4-.4,4.2-.5,9.4,2.1,13.3a.9.9,0,0,0,1.3.3,1.1,1.1,0,0,0,.2-1.2c-2.3-3.4-2.3-8.1-1.9-12.2.1-.5.1-.9.2-1.4.4-4.3.9-8.8-.8-12.9l-.6-1.3a10.6,10.6,0,0,1-.9-2.5,9.1,9.1,0,0,1,0-3.3,43.3,43.3,0,0,1,3.3-12.2,4.7,4.7,0,0,1,.5-1,16.7,16.7,0,0,1,.8-2c.2.1.5.2.7,0s.1-.9.2-1.4a1.9,1.9,0,0,0,2.5-2.6l1.6.6.9-2c0,.5.7.6,1.1.3a5.2,5.2,0,0,0,1-1.1,2.5,2.5,0,0,1,2-.7c.2.7.2,1.3.4,2a4.3,4.3,0,0,0-1,.9,1.1,1.1,0,0,0,.1,1.2,1.3,1.3,0,0,0,1.1.2,6.4,6.4,0,0,0,.2.7.5.5,0,0,0,.3.5l-.2.3c0,.2.1.6.4.7a1.8,1.8,0,0,0,.9-.4c.3-.1,1.1-.1.8,0a.9.9,0,0,0-.2,1.1.7.7,0,0,0,1,.3c.2.6.3,1.2.8,1.4a.7.7,0,0,0,1.1-.3,3.4,3.4,0,0,0,1.9,3.2l1-1.2c-.4-.3-.2-1,.3-1.3a1.9,1.9,0,0,0,1.1-.9c.2-.8-.9-1.2-1.7-1.3a12.4,12.4,0,0,0,1-2,.8.8,0,0,0,1,.2,1.8,1.8,0,0,1,.5-1.9,49.8,49.8,0,0,0,1.8,16.3c.3,1,.6,2,1,3s1.1,3.6,1.5,5.5c1.1,5.4.5,11.5-1.8,19.2a.9.9,0,0,0,1.7.5c2.4-8,3-14.3,1.8-20.1a51.5,51.5,0,0,0-1.6-5.6l-.9-2.9a49.1,49.1,0,0,1-1.8-15.2,2,2,0,0,0,2.3.5,1.3,1.3,0,0,0-.8.8l2.6-.4a16.1,16.1,0,0,0,1.7,2.8c.2.3.5.6.8.6a.7.7,0,0,0,.6-.4,2,2,0,0,0,.3-2.1,1.6,1.6,0,0,0,.1-2.1,1.3,1.3,0,0,0,1.1-1.4,1.6,1.6,0,0,0-1.2-1.3,3.6,3.6,0,0,1,.8-1.2,1.6,1.6,0,0,0-.7-.9,1.8,1.8,0,0,0,.8-2.1,2.3,2.3,0,0,0,1.1-2.4.8.8,0,0,0,1-.2,2.1,2.1,0,0,1,.8-2.9,3.5,3.5,0,0,1-.2-5.4,3.6,3.6,0,0,1,2.7,3,1.1,1.1,0,0,1,1.9-.3l-.5,1.5h.3a23.1,23.1,0,0,1-1.2,5.2c-.5,1.1-1,2.2-1.6,3.3s-1.3,2.7-1.8,4.1c-2.5,7.1-.4,14.4,1.7,21.5.7,2.5,1.5,5.2,2,7.7,1.9,8.8,1.1,18,.2,26.9a.9.9,0,0,0,.8.9.9.9,0,0,0,1-.8c.8-9,1.7-18.3-.2-27.4-.6-2.6-1.4-5.2-2.1-7.8-2.1-7.1-4.1-13.9-1.8-20.4a33.9,33.9,0,0,1,1.8-3.9c.5-1.1,1.1-2.3,1.6-3.5a22.5,22.5,0,0,0,.8-2.4l.6.2a1.4,1.4,0,0,0-1,1.5c0,.7.7,1.3,1.3,1.8a4,4,0,0,0-1,1.5,1.5,1.5,0,0,0,.7,1.6,7.7,7.7,0,0,0-.7,1.6l.8.3a1.1,1.1,0,0,0-.6,1.2.9.9,0,0,0-.7-.1,1.5,1.5,0,0,0-.4,1.1c.1.8.5,1.7,1.2,1.7s1.7-1.4,2.5-1.1a2.4,2.4,0,0,1,.7,1.2,2.9,2.9,0,0,0,1.7-1.9c0,.3.5.5.8.4a1.7,1.7,0,0,0,.6-1.2c0-.1-.2-.2-.3-.3s.4-.7.8-.7.9.3,1.3.1a1.6,1.6,0,0,0,.7-1.2c.2-.4.3-1,.7-1.2s1.1.2.9.7h.3a9.7,9.7,0,0,0,2.2,4.1,20.3,20.3,0,0,0,2,2.1,19.8,19.8,0,0,1,3,3.6c1.4,2.3,1.8,5,2.2,7.6l2.4,15.1a.8.8,0,0,0,1,.7.9.9,0,0,0,.7-1l-2.4-15.1c-.4-2.6-.8-5.6-2.4-8.2a24.7,24.7,0,0,0-3.2-3.9,18,18,0,0,1-1.9-2c-.7-.8-1.6-5.5-1.7-8.7l-.4.8a.3.3,0,0,0-.4-.4c-.6.3-1,1.3-1.2.6l2.2-3.7a6.8,6.8,0,0,0-.2,2.7,14,14,0,0,1,1.6-2.6h1.1a.9.9,0,0,0,.9,1.3,4.1,4.1,0,0,0,.1,1.9,1.3,1.3,0,0,0,1.5.8.8.8,0,0,0-.2,1.2.8.8,0,0,0,1.2.3,3.2,3.2,0,0,0,1.5,3.2c-.6.5.2,1.3.8,1.4s1.5,0,2,.4a2.1,2.1,0,0,1,.5,1.7,5.9,5.9,0,0,0,2.9,4.5l.6.2c.3,0,.4-.2.6-.3a4.2,4.2,0,0,0,1.2-3h.2a4.5,4.5,0,0,0,3.6-.3,1.1,1.1,0,0,1-.1-1.2c.4-.4,1.1-.2,1.6,0a3.2,3.2,0,0,0,1.6.4c.6-.1,1.3-.5.9-1l.5-.5c-.2.2.2.4.4.4a3,3,0,0,0,2.3-.4c0,.4.1.9.1,1.3a62.7,62.7,0,0,1-1.1,8.7,68.2,68.2,0,0,0-.9,7.9,74.8,74.8,0,0,0,.1,8.2c.3,4.9.5,9.6-.9,14a41.2,41.2,0,0,1-3,6.9c-2,3.9-4,7.9-3.8,12.3a.9.9,0,0,0,1,.8.8.8,0,0,0,.8-.9c-.3-3.9,1.6-7.6,3.6-11.4a38.2,38.2,0,0,0,3.1-7.2c1.5-4.7,1.2-9.7,1-14.6a71.2,71.2,0,0,1-.2-8c.2-2.6.6-5.2,1-7.7a65.2,65.2,0,0,0,1-9V324c.1.1.2.1.2.3s0,.4,0,.6,2-.2,2.6.6.1,1,.5,1.2h.4a3.3,3.3,0,0,0,2.6-1.6.5.5,0,0,0,.8-.2.6.6,0,0,0-.1-.8,1,1,0,0,0,.8-.6c-.3-1.5-.9-3.2-2.4-3.6.5,0,.9-.5.7-.9a.7.7,0,0,0-1.1-.4l-.3-1.1h-.8a1,1,0,0,0,.7-1.2,1,1,0,0,0-1.2-.6.9.9,0,0,0,.1-1.3.9.9,0,0,0-1.2,0c0-.5-.1-.9-.1-1.3a4.1,4.1,0,0,1,2.2-.7,1.3,1.3,0,0,0,2.2.8,1.9,1.9,0,0,0,.6,1.7,1.5,1.5,0,0,0,1.2,1.7,1.5,1.5,0,0,0-.2,1.3,1.6,1.6,0,0,1,1.2.6l.9-.5a2.7,2.7,0,0,0,1.3,2.8,7.6,7.6,0,0,0,3.3.8,2.1,2.1,0,0,0,1.3-.3,1,1,0,0,0,.5-1.2,21.2,21.2,0,0,0,4.4.5c.3,0,.6,0,.7-.3S437.9,319.7,437.6,319ZM234.9,249.4c.2-.4.6-.8,1-.6v.6a10.1,10.1,0,0,1,.7-1.5c.4-1.1,1-2.3,2.1-2.3s.5,0,.6.2a.7.7,0,0,1-.3.6c-.7.8-1.4,1.8-1.1,2.8a4.8,4.8,0,0,1,4-1.1c-.5.5-1.4.4-2,.8a1.2,1.2,0,0,0,1.3,2.1,2.1,2.1,0,0,1-1.1.8l1.6,1.1c.2.2.5.4.4.6l-.2.3a1.8,1.8,0,0,1-2.6-.9v-.5a1.3,1.3,0,0,0-1.5-1.1l-.8.3a1.7,1.7,0,0,1-2.2-2.2Zm4,56.3a1.4,1.4,0,0,1,.3-1.1,1.1,1.1,0,0,1-1.1-1.2,1.4,1.4,0,0,1,.2-.6c.2-1.2-1.4-2.3-.8-3.4s.2-.2.2-.4-.3-.4-.5-.5-1.3-2.7-1.1-4.2l.3-3.7c.2,1.2.5,2.3.7,3.5a.7.7,0,0,0,.3.6c.3.1.6-.2.4-.3s.1,1.1.5,1.7,1.1.1,1.4-.4.4-1.2.9-1.6a2.6,2.6,0,0,1,.2,3c-.4.5-1,1.1-.8,1.7s.8.2.8.6a3,3,0,0,1-.7,1.1c-.3.3-.5.8-.3,1.1s2,.2,2.2,1a1.4,1.4,0,0,1-.2.6,9.8,9.8,0,0,0-1.3,4.4c-.2-.2-1-1.3-.7-1.6S239,306,238.9,305.7Zm-6.6-74.3a9.1,9.1,0,0,1,.7,1.4c.1.2-.8,1.6-.9,1.4a1,1,0,0,1,.3-1.2l-1-.7.2-.2C231.1,231.1,231.4,229.9,232.3,231.4Zm-20-50.6c.1-.6.6-1,.6-1.6a7.6,7.6,0,0,0-.6-2.6,3.5,3.5,0,0,1,1.8,1.6c.6,1.2.2,2.9,1.2,3.8a3.5,3.5,0,0,0,1.4.6,9.3,9.3,0,0,1,3.1,2.2,13.9,13.9,0,0,1-3.6-1.2,1.4,1.4,0,0,1,.2.6,6.5,6.5,0,0,1-1.4,0c-.5-.2-.9-.5-.9-1s0-.4-.1-.6-1-.6-1.3-.2S212.3,181,212.3,180.8Zm-3.8,140.1a1.3,1.3,0,0,0-.6.7l-.4-.5A1.2,1.2,0,0,0,208.5,320.9Zm-1.2,0-1.2-1.3.4-.2a.9.9,0,0,1,1,.6A.8.8,0,0,1,207.3,320.9Zm-3.9-9.5h.2c.2,0,.5-.1.7,0a8.6,8.6,0,0,1,.1,1.6,1.5,1.5,0,0,1,.8,2.2v.3a.4.4,0,0,0-.1.3c.1.4.5.8.9.7s.6-.7,1-.8.4,1,.8,1.3a1.4,1.4,0,0,1-.9.3h-.9a.9.9,0,0,0-.6.6,10,10,0,0,1-1.5-2.7v-.3c0-.1.2-.2.2-.3a.6.6,0,0,0-.1-.6,8.6,8.6,0,0,1-.5-2.3Zm-.1,7.3a5.3,5.3,0,0,1-3.1-1.7h.4l-1.4-1.8a.9.9,0,0,0-.6-.6H198a.8.8,0,0,1-.8-.7c.1.3-.4.6-.7.5a.8.8,0,0,1-.3-.9,1.8,1.8,0,0,1,.6-.9l-2.2-.2c-.2,0-.5-.2-.5-.4a.2.2,0,0,1,.2-.2l1.1-.8a.3.3,0,0,1,0-.6c.2-.2.5-.1.8,0s.9.8,1.9.5-.1.5.1.7a.4.4,0,0,0,.6.1c0-.1.1-.2.1-.3s.3-.7.4-1.1.6.9.5,1.4-.1,1.3.4,1.5h.9c.5.2.5.8.4,1.2a6.1,6.1,0,0,0-.3,1.3,1.9,1.9,0,0,0,.7,1.3Zm-13.8-54.9,3.5-.6.7-.2c.1,0,.2,0,.2-.1s0-.3-.2-.4l-1.7-1.1c.7-.2.5-1.2.2-1.9.4.9,2.4,1,3.2.9-.7,3.5,1.6,2.3,3.3,3.7s.4,1.4.9,2.2,2,1.2,2.2,2.2-.8,0-1.2-.5a3.5,3.5,0,0,0-3.6-1.2c.1-.5,0-1.4-.6-1.5s-.8.4-.9.8-.2.9-.5,1.2a1.1,1.1,0,0,1-1.5,0c-.5-.4.9-1,.6-1.6a.2.2,0,0,0-.2-.2c-.9-.5-2,.4-3,.4A1.7,1.7,0,0,1,189.5,263.8Zm-8.2,53.3c.6-.9.9-2.1,1.7-2.9a2.1,2.1,0,0,1,2.9-.4,3.1,3.1,0,0,0-1.4,1.8,1.1,1.1,0,0,0-.3.7c-.2-.7-1.2-.7-1.7-.2a2.4,2.4,0,0,0-.4,1.9,11.3,11.3,0,0,0-1.4,1.5l-1.4-.3A5.8,5.8,0,0,0,181.3,317.1Zm-3.1.6a6.6,6.6,0,0,1,.1,1.4l-2.3-.3c0-.2.1-.3.2-.5S177.5,317.7,178.2,317.7Zm-20.1-73.2h1.8a2,2,0,0,0,1.5-.9c.2-.6-.5-1.4-1-1.1a3,3,0,0,0,1.8-2.4h-1.1c.9,0,2.1-.5,1.8-1.4s-.9-.7-1.5-.8-1.2-.6-1-1.1a3,3,0,0,0,2.3-.8l-.5-.6c.7.8,2.1.2,2.6-.7s.6-2,1.3-2.9c0,1-.1,1.9-.1,2.9l1.5-.4c-.1.8-.1,1.6-.2,2.5a1,1,0,0,0,.2.7c.4.5,1.1-.1,1.5-.6l1.5-2.6a1.8,1.8,0,0,1,1.1,2.1,5.1,5.1,0,0,1-1.5,2.1c-.5.5-1.1,1-1.1,1.7s.8,1.4,1.3,1a1.4,1.4,0,0,0-.3,1.7,1.1,1.1,0,0,0,1.2.4,2,2,0,0,0-.4.8,3.8,3.8,0,0,0,.1,1.5l2.3.4-2.4,2.3a1.3,1.3,0,0,0-.2,1.9c-.5-.6-2.1-1-1.9-1.7s.8-.5,1.1-.8a1,1,0,0,0-.7-1.5,2.9,2.9,0,0,0-1.3.1,1.3,1.3,0,0,0,.3-1.3,7.2,7.2,0,0,0-.9-2l-1,.4a6.2,6.2,0,0,0,.2-1.9,1.8,1.8,0,0,0-1-1.5c-.7-.2-1.5.1-1.5.8s.1.6.4.6a2.3,2.3,0,0,0-1.6,1.6,10,10,0,0,0-.4,2.4c-.1.5-.4,1.1-.9,1.1a.9.9,0,0,1-.5-.3,2.9,2.9,0,0,0-2.7.2,7.6,7.6,0,0,0-2.2,1.7A2.8,2.8,0,0,1,158.1,244.5Zm-2.4,69.9a.7.7,0,0,0,1,.1,2,2,0,0,0,.3-1.7,1.7,1.7,0,0,1,.1-1.7c.8.5,1.6-.5,2.1-1.4s1.3-1.8,2.1-1.3.6,2.2,1.6,2.4.4,0,.6.2,0,.5-.2.4l-.6,1-2.1-2.1-.3-.2c-.3-.1-.6.4-.5.8s.4.7.4,1a1.8,1.8,0,0,0-1.6,0c-.4.4-.4,1.2.1,1.4s-.5.3-.4.5,3.2-.5.9,1.3a16.7,16.7,0,0,0-1.6,1.2.9.9,0,0,0-.3.5c-.1.2.1.5.3.4l-.4.9h.4a5.2,5.2,0,0,0-1.1,1l-1.2-2.4A5.7,5.7,0,0,0,155.7,314.4Zm-3.2,3.3.3.3c.3.7.7,1.3,1,2l-5.5.9c-.5-1.2-1.1-2.3-1.7-3.5a13.4,13.4,0,0,1,.9-2.6.1.1,0,0,0,.1-.1,6.8,6.8,0,0,0,2.5,4.4C151.1,319.6,152.7,318.8,152.5,317.7Zm-3.8-4.8,1-1-.4.5Zm-4.4-96.1c.7-.2,1.2.7,2,.8l.2-.3c.1-.1.1-.4-.1-.4a.5.5,0,0,1-.8-.4c-.1-.4.2-.7.6-.9h1.1a2.2,2.2,0,0,1,1.5.8c0,.1.1.1,0,.2a.4.4,0,0,1-.3.4c-.8.4-1.6.7-1.8,1.5s-.1.6-.2.9a4.5,4.5,0,0,1-1.2,2.5v-.8c-.3.3-.8-.3-.7-.7s.7-.5,1.1-.6-1.2-.8-1.6-1.3S143.7,217,144.3,216.8Zm1.3,86.2c-.4.4-1.1.6-1.4,1.2s-.2.7-.5.6h-.3a1.3,1.3,0,0,0-1.2-.3c0,.8-1.1,2.9-1.8,1.2-2,.6-3-1.1-2.9-2.9s2.8-4,2.9-1.1a2.5,2.5,0,0,1,1.6-2,3.3,3.3,0,0,1,3.2.3A2.2,2.2,0,0,1,145.6,303ZM141,248.2h.1c.6.3,1.2-.1,1.7-.5s.8-1,1.4-1.1a5.9,5.9,0,0,0-1.4,5.4,1.4,1.4,0,0,1-1.1-1.7,2.7,2.7,0,0,1-1.5.5l.4-.8a3.2,3.2,0,0,1-1.9-2.3A2.4,2.4,0,0,1,141,248.2Zm-4.6,28.1c.2.2.3.4.6.5h.6a2.9,2.9,0,0,1,2.2,1.2c.1.1.2.2.1.3h-1c.4.3.4,1,.3,1.6s-.1.1-.1.2h-.2a1.5,1.5,0,0,1-1.3-1.7h-.2c.1-.1,0-.3-.1-.4s-1.1-1.2-1.6-1.9A.7.7,0,0,1,136.4,276.3Zm-9.6,38.4h-.2a1.5,1.5,0,0,0-1,.9.9.9,0,0,0-1.3-.5l-.7-.6c-.8-.4-1.7-.8-2-1.7s.7-2.3,1.9-2.6c-.8-.2-.7-1.4-.1-1.8a2.8,2.8,0,0,1,2.2,0,4.8,4.8,0,0,0,.7,2.3C126.5,312,126.6,313.3,126.8,314.7Zm-7.1-34.3H119a.7.7,0,0,0-.7.4c0-.4.5-.5.9-.6h.2c.1-.3-.3-.5-.4-.8s.8-.6.9-1-.5-1-.6-1.4,0-.3.2-.3.1,0,.2,0a2.3,2.3,0,0,1,1.2,1,.6.6,0,0,0,.1-.4,1.2,1.2,0,0,1,1.4.7,3.7,3.7,0,0,1,.2,1.8,1.5,1.5,0,0,1,1.5,1.5v.5c.3.6,1.4.2,1.7.7a.7.7,0,0,1,.1.5v1.7a3.6,3.6,0,0,1-.2-1c-.1-.3-.2-.6-.4-.7s-.9.7-1.5.8h-.4a.9.9,0,0,1-.6-.6.6.6,0,0,1,.2-.7h.4a.4.4,0,0,0-.1-.3A4.6,4.6,0,0,0,122,280a1.9,1.9,0,0,0-1.6-.6A.8.8,0,0,1,119.7,280.4Zm7,43-.9-.5-5.1-2.6a1.6,1.6,0,0,1,.9-.7h1a1,1,0,0,0,.6-.5h.1a3,3,0,0,0,.9,1.3.6.6,0,0,0,.7.2l.4-.2.8-.7.4-.2c.2-.1.3,0,.5.1S126.9,322.2,126.7,323.4Zm.9-42.1c-.2-.4.1-.9,0-1.3s-.4-.6-.5-1,1.5.7,1.6,1.4a.7.7,0,0,0,.1.5l.3.3a15.3,15.3,0,0,1,1.8,1.8l.3.6a2.5,2.5,0,0,0-1.2-.1,2,2,0,0,1-1.1-.3c-.3-.3-.4-.8,0-1S127.8,281.8,127.6,281.3ZM144.7,331c-2.5.1-5.1-.1-7.5.8a51.6,51.6,0,0,0-8.9-7.3c.2-1.3.3-2.6.4-3.9l1.1.2a3.9,3.9,0,0,0-1.1-2.2,56.5,56.5,0,0,0-.4-5.9,2.7,2.7,0,0,0,.8-.7h.2a1.2,1.2,0,0,1,.4,1.3c-.1.4-.4.8-.5,1.3a1.3,1.3,0,0,0,.3,1.2.7.7,0,0,0,1-.3,1.6,1.6,0,0,0,.5.9,7.2,7.2,0,0,0,.7-2.8c.6-.2,1.3-.7,1.3-1.4v-.2h0l.5.2a1.6,1.6,0,0,0,1.3-1.5,1.2,1.2,0,0,0,1,.4,1.1,1.1,0,0,1-.4,1.2l-.7.4a3.4,3.4,0,0,0-.8,1.7c-.2.6-.7,1.2-1.3,1.1a3.4,3.4,0,0,0,.2,2,1.4,1.4,0,0,0-1.9.9,1.3,1.3,0,0,0,.9,1.4v.5a2.3,2.3,0,0,1,2.6.5.5.5,0,0,1,0,.5,1.1,1.1,0,0,0-.2,1.9.8.8,0,0,0-.4.9,2.1,2.1,0,0,0,.4,1l.7,1.1c.2-.3.1-.8.1-1.2s.5-.8.8-.6l.2.3c.4.2.7-.3.7-.6s-.1-.8.1-1.1a.8.8,0,0,0,.7.7,1.1,1.1,0,0,0,0-1.1,2.7,2.7,0,0,0,1.2.3l.3-1.2a1.3,1.3,0,0,0,1.6-1.2l-1.5-.2c.1-.9,1.2-1.2,2-1.2s2,0,2.3-.8a5,5,0,0,0-5.9,0,4.3,4.3,0,0,1-1.3-.9,1.4,1.4,0,0,1-.1-1.5,2.8,2.8,0,0,0,2.3.7c-.2-.6-.5-1.3-.1-1.8a1,1,0,0,0,.5-.4,1.4,1.4,0,0,0-.4-2.3c.2-.7,1.4-.6,1.8,0a3,3,0,0,1-.1,2.1,4.8,4.8,0,0,0,1.2-1.6l.6,1.2v.2a1.3,1.3,0,0,0-.3,1.3c.1.3.4.4.7.5h.6c.6,1.1,1.1,2.3,1.6,3.4h0c-.9.2-1.8.8-1,1.6l-1.4.4h-.3c-.4.4.2,1.1,0,1.6a.9.9,0,0,1-.6.4l-1.2.6-.7.5a.6.6,0,0,0,.3.8l.6-.2a3.2,3.2,0,0,1,2.7-.2,1.8,1.8,0,0,0-.9.6.9.9,0,0,0,.2,1c.4.2.9-.2,1.3-.3a4.1,4.1,0,0,1,1.1,0c0,.3.1.5.1.8l.3,3.8Zm-1.6-18.9c.4-.6,2.4.4,2.1-1.2a1.7,1.7,0,0,0,.6.6.8.8,0,0,0,.8-.1c.1-.1.1-.3.2-.5l.3-1.5c.1-.1.1-.3.2-.4a.6.6,0,0,1,.9.1c.3.2.3.6.4.9s1.3.1,1.4.7v.5l-.8-1.2a10.2,10.2,0,0,0-3.2,3.9h-1C144.4,313.8,142.4,313,143.1,312.1ZM163.6,332a8.9,8.9,0,0,0-3.5,1.4l-5.7,3a2.4,2.4,0,0,1-2.3-.1c-1.9-1.1-3.7-2.5-5.5-3.8a45.8,45.8,0,0,0-.3-5.3,3.7,3.7,0,0,0,.2-.9.6.6,0,0,0,.1-.7h0l-.9.5c-.3-.7-.8-3.7.3-2.9v.4c.1.5.1,1.1.2,1.6h0l.4.3a23,23,0,0,1,6.2-1.9,1.6,1.6,0,0,0,1.4.2h.6l.9.4a10.9,10.9,0,0,0,1.9,3.3,16,16,0,0,0,6.2,4.6Zm8.9-1.1a30.6,30.6,0,0,0-6.8-2.5c-2-.5-4.2-.9-5.6-2.4a9.2,9.2,0,0,1-1.3-2.1l-.4-.9,5.3-.9,1.3-.3v.2c.1.2-1.3,1.6.2,1.3a1.1,1.1,0,0,0,.9-.6.5.5,0,0,0,.3.7.5.5,0,0,0,.7-.1c-.2.4.3.8.8.7a1.6,1.6,0,0,0,.9-.9c.1.7.3,1.6,1,1.6s1.1-.7.9-1.3a1.4,1.4,0,0,0-.2-.6h0a2,2,0,0,0,1.1-.3A23.6,23.6,0,0,1,172.5,330.9Zm-7-12.2h0c.1-.1.1-.2.2-.2a1.4,1.4,0,0,0-.3-1.7,1.4,1.4,0,0,0-1.7.1,3.2,3.2,0,0,0-1-1c-.5-.1-1.1.1-1.1.6s.2.6.1.9a.8.8,0,0,1-.7.5h-1.6a15.9,15.9,0,0,0,1.3-1.3c.1-.2.2-.4.1-.5s-.1-.2-.2-.3a.8.8,0,0,1,.5-.9h1.1a2.1,2.1,0,0,0,1.1-.8.1.1,0,0,0,.1-.1h.1c-.3,1.1,1.2,2,2.2,1.5a2.5,2.5,0,0,0,1.1-1.2l.3.3c.9.3,1.8-.5,2.2-1.3a1.6,1.6,0,0,0,2.4.7c.1,1.2,1.9,1.5,2.9.7s1.2-2.1,1.4-3.3a3.7,3.7,0,0,1,1.9,2.4c0,1.1-.9,1.9-1.7,2.6l-2.7,2.3h-.7A59.3,59.3,0,0,0,165.5,318.7Zm16.2,13.1h0a3.2,3.2,0,0,1-.9-2.2,2.5,2.5,0,0,0-1.5-2.4,4.3,4.3,0,0,0-1.4-.4.6.6,0,0,0-.6,0,.3.3,0,0,0-.3.3c0,.3.3.4.6.6a2,2,0,0,1,1.2,1.3v.3c-.1.2-.2.3-.4.3a5.4,5.4,0,0,0-1.6,1.4,1.7,1.7,0,0,0,2.4-.2c.2-.2.5-.6.8-.5a.8.8,0,0,1,.2.5c.2.4.3.8.7,1h-.5a24.6,24.6,0,0,0-4.6.8l-1.6-.9a26.3,26.3,0,0,0-1.1-10.4l4.1.6,5.3.7a.7.7,0,0,1,.3.6c.1,1.3-2.4.8-1.3,2.5a1.4,1.4,0,0,0,.8.7.4.4,0,0,0,.6-.3,1.3,1.3,0,0,0,.5,1.1,1.1,1.1,0,0,0,1.4.1.8.8,0,0,0,1,.9,1.4,1.4,0,0,0-.8,1.5,2.4,2.4,0,0,1-1.4-.3,2,2,0,0,0-1.3-.2.7.7,0,0,0-.5,1.1l1.1-.6c-.1.3.3.7.6.8a2.1,2.1,0,0,1,1.1.4c.3.2.6.7,1,.5l.3-.2.6-1.4a1.3,1.3,0,0,0,1.9.8,1.9,1.9,0,0,0,.6-2.1,2.8,2.8,0,0,0-1.8-1.4l.4-.8a1.3,1.3,0,0,1-1.5-1,1,1,0,0,1,.4-1c3.1,3.2,6.6,6.6,9.9,9.6C191.5,332.8,186.6,331.7,181.7,331.8Zm19.4.8c-4-3.9-9.1-6.6-11.9-11.4l-5.9-1.3a1.5,1.5,0,0,1,.2-1.1,1.3,1.3,0,0,1,1.4-.5h.6a.7.7,0,0,0,.5-.8,1.4,1.4,0,0,0-.7-.8.7.7,0,0,0,.6-.4,12.7,12.7,0,0,1,2.7,1.8,1.3,1.3,0,0,0-1.1.8,6.1,6.1,0,0,0,5.1-.5,2.3,2.3,0,0,0,1.8,3.3c.3.8-1.2.9-1.7,1.6s.3,1.5,1.1,1.5a2.3,2.3,0,0,0,1.7-1.2,7.7,7.7,0,0,1,1.5-1.6v3.7a3.5,3.5,0,0,0,3.4-2,1.2,1.2,0,0,0,1.7.7v.3a.4.4,0,0,0,.1.3l-1.1.4a2.3,2.3,0,0,0-1.1.8,1.2,1.2,0,0,0,.4,1.5,1.3,1.3,0,0,0-.6.7c0,.4.2.7.6.7l.4-.3a7.8,7.8,0,0,0,1.7-2.6,1.5,1.5,0,0,0,1.3.1,1.1,1.1,0,0,0,.3-1.1c0-.4-.2-.7-.2-1.1h0l7.1,5.6A69.9,69.9,0,0,0,201.1,332.6Zm20-4.4-3.1.3c-2.4-1.6-5-2.9-7.4-4.6.4-.2.7-.4.8-.8a4.3,4.3,0,0,0,2.8,2.5c1.3.3,2.9-.5,2.9-1.8.8.3,0,1.7.6,2.4a1.1,1.1,0,0,0,1.3-.1,3.5,3.5,0,0,0,.6-1.4,1.4,1.4,0,0,0,1.1,1.3l.6-.2C221.2,326.6,221.2,327.4,221.1,328.2Zm.3-86.9c-.2-.4-.3-1,.1-1.3h2.3a2.7,2.7,0,0,1,1.1-3.1,3.7,3.7,0,0,1-.1-1.8,1.5,1.5,0,0,1,1.1-1.3,1.1,1.1,0,0,1,1.4.8c0,.7-.6,1.2-.9,1.8s0,.9.4.9-.8.7-.8,1.2.7,1,1,.6a1.4,1.4,0,0,0,1.2.7c-.4.4,0,1.2.6,1.2s1-.4,1.2-1a4.3,4.3,0,0,0-.1-1.6h1a.9.9,0,0,1,.8-.6,2.9,2.9,0,0,1,.1,1.6c.3-.2.6.1.7.5a2.9,2.9,0,0,1-.2.9c0,.3.1.7.4.7a.8.8,0,0,0-.8.6.7.7,0,0,0,.5.8c-.5.1-.7.9-.4,1.4a3.4,3.4,0,0,0,1.4.9,3.1,3.1,0,0,0-1.1.9,1.2,1.2,0,0,0,0,1.4,1.2,1.2,0,0,0-1.7,1.1l.9.3c-.9-.3-1.4,0-2-1s-.4-1.6-1.2-2-2.2.6-3-.1-.4-1.7-.9-2.4A4.9,4.9,0,0,1,221.4,241.3Zm2.6,86.8h-1.1c0-1.1.1-2.2.2-3.3l.6-.4a.9.9,0,0,1,1.1.3h.1C225.4,326.1,225.4,328.1,224,328.1Zm5.2-66.7c-.2.2-.7.4-.8.2s.4-1,0-1.1-2.1,1-2.4,1.9-.3,1.3-.8,1.2a3.1,3.1,0,0,1,.9-3,4.3,4.3,0,0,1,2.9-1.3h.7c.5-.4,0-1.3.2-1.9a2.4,2.4,0,0,1-2-.6,2.8,2.8,0,0,1,3.4,0c0,.2.6-.3.5-.1s1.1-.2,1.1-.7a3.5,3.5,0,0,0-.6-1.4,8.2,8.2,0,0,1-.6-2.7,2.3,2.3,0,0,0-2.1.5,1.8,1.8,0,0,1-.7.5h-2.7a1.1,1.1,0,0,0,1.1-.8,1.2,1.2,0,0,0-.2-1.3,5,5,0,0,1-3.6.4,7,7,0,0,1,5.3-.9l-2.5-2.5a1.7,1.7,0,0,1,1.9.2,6.7,6.7,0,0,1,1.1,1.8,1,1,0,0,0,.4.5l.6-.2a2.5,2.5,0,0,1,1.9,0l.5.2c.3.3.2.7.2,1.1a2.7,2.7,0,0,0,3,2.6c.2-.1.6-.2.8,0s.2.9-.2,1.1a3.2,3.2,0,0,1-1.4.1h-.4a.4.4,0,0,0-.1.3,1.5,1.5,0,0,0,.7,1.3c.4.4.9.6,1.1,1.1a2.7,2.7,0,0,1,.2,2,4.4,4.4,0,0,1-.9-1.1h-.6a7.7,7.7,0,0,1,.6,3c-.5.1-1-.3-1.5-.5s-1.1-.3-1.4.2.5-.8.8-1.1.6-.9.2-1.1h-2.3A27.3,27.3,0,0,0,229.2,261.4ZM244,326.9a38.5,38.5,0,0,1-4.8-.1,1.5,1.5,0,0,1-.9-.2,2.3,2.3,0,0,1-.4-1,15.8,15.8,0,0,0-2.9-6.3,2.7,2.7,0,0,0-.5-2.6,5,5,0,0,1-2.4.3c.1-.7.1-1.4.2-2.1a.6.6,0,0,1-.9-.6c0-.4.4-.6.4-1s-1.8-1.6-1.2-2.3l1.3-.5-1-1.4c.3.5,1.2-1.9,1.2-2.1s-.9-1.8-1.4-2.8a5.7,5.7,0,0,1,0-5.5,8.5,8.5,0,0,0,.4,3.2,2.8,2.8,0,0,0,2.5,1.7,4.6,4.6,0,0,0,2,3.5,10.9,10.9,0,0,0-.6,4.4,1.9,1.9,0,0,0,1.8-.4,2.8,2.8,0,0,0,0,2c.3.7,1.3,1,1.7.4a2.9,2.9,0,0,0,.4,1.6H240l-.3,2.3c2.2.9,4.7,2.2,4.9,4.6S243.6,325.3,244,326.9Zm14.8-16.3c-.3,1.2-.7,2.3-1.1,3.5a3.5,3.5,0,0,1-.6,1.4,11.9,11.9,0,0,1-1.6.8c-.5.3-1,1-.7,1.5a1.2,1.2,0,0,0-1.4,1.6c-1.4,1.2-2,3-3,4.6s-2.4,3.3-4.3,3.1c-.4-1.1.4-1.1,1-1.5a3.3,3.3,0,0,0,1.9-2.4,1.6,1.6,0,0,0,.3-2.6,1.4,1.4,0,0,0,.5-2.3.9.9,0,0,1,.7-1l1,.2a1.2,1.2,0,0,0,.9-1.8,2.1,2.1,0,0,0,2.4-2.4,2.2,2.2,0,0,0,2.2-2.9,12.2,12.2,0,0,0,2.9-1.7A4,4,0,0,0,258.8,310.6Zm3.9,13a33.9,33.9,0,0,0,2.7-3.9l.7,3.8Zm85.2-125.1a1.4,1.4,0,0,1,.9-.3,2.9,2.9,0,0,0,1-.3.9.9,0,0,0,.2-1.4.6.6,0,0,1-.8.3,1.2,1.2,0,0,1,.3-1.4,1.6,1.6,0,0,1,1.5-.2v.2l1.2-1.3c-.1.5-.1.9-.2,1.4a2.5,2.5,0,0,1,2.2-.6,7,7,0,0,0-3,2.4,3.2,3.2,0,0,1-.8,1.4,5.9,5.9,0,0,1-1.4.2,1.2,1.2,0,0,0-1.1.5A.6.6,0,0,1,347.9,198.5Zm0,4.6.3-.4h.4a3.9,3.9,0,0,1,0,2.6,3.2,3.2,0,0,1-1.2,1.1H347a4.2,4.2,0,0,0,1.1-1.6,1.1,1.1,0,0,1-1.3-.7A1,1,0,0,1,347.9,203.1ZM316.8,303.5a1.1,1.1,0,0,1,.2-1.1.2.2,0,0,0,.2-.2c0-.2-.3-.2-.5-.2s-.8-1.8-.4-2.5a13.4,13.4,0,0,0,.9-2.6,12.5,12.5,0,0,1,.8,1.2,2,2,0,0,1,.2,1.1c0,.5-.6.9-1.1,1.2l.9.7-.3.2a1,1,0,0,1,.6,1,2.6,2.6,0,0,1-.5,1.2,9.1,9.1,0,0,1-1.8,2.1,2.1,2.1,0,0,1,.7-1.2c.1-.2.3-.3.3-.5S317,303.5,316.8,303.5Zm.3-71.1c-.1.1-.4.3-.6.2s-.1-.4-.2-.5-.8-.3-1.1,0a11.7,11.7,0,0,0-.5,1.1,1.7,1.7,0,0,1-1.6,1.3c-.5-.1,1.7-3.5,2.1-3.8s1.4-.6,1.8-1,.3-1.3.8-1.9.1,1.4.1,2h1.3A16.4,16.4,0,0,1,317.1,232.4Zm-2.8-27.1,1.2.5a4.7,4.7,0,0,1-.6.9.8.8,0,0,0,0,1h.7l3-.6a2.5,2.5,0,0,1-1.8,1,7.3,7.3,0,0,0-2.1.6c-.9.5-1.3,1.6-2.1,2.2a8.2,8.2,0,0,1,1.2-2.5l-1.7,1.8c-.1,0-.1-.3,0-.4l1.5-2.7-1.6,1,1-1.3h0l.6-.7Zm-5.9-3c.2-.6.6-1.1,1.1-1.1a1.1,1.1,0,0,1,.9.6l.6-.3-.3,1,.6-.6c.3-.2.7-.2.8.1a.4.4,0,0,1-.1.3,17.2,17.2,0,0,1-.7,2.1,5.8,5.8,0,0,1,1.9-.3l-4,5.3a4.3,4.3,0,0,1,1-2.3,12.2,12.2,0,0,0,1-2.4l-2.3,1.4a18,18,0,0,0,.8-2.1.9.9,0,0,1-1.1-.4A1.5,1.5,0,0,1,308.4,202.3ZM304,176.2c.6-.2,2.1,1.2,2.4,1.7a4.8,4.8,0,0,1,.6,3.1,3.8,3.8,0,0,1-.8,1.7c-.1.2-1.4,1-1.4,1.1a7.9,7.9,0,0,1,.6-2.2c.3-.6.6-1.3.1-1.8a.8.8,0,0,1-.8,1,1,1,0,0,1-.9-1c-.1-.4.3-.9.7-1.1S302.8,176.5,304,176.2ZM291.9,282.6c.1-.2.2-.3.4-.3a1.2,1.2,0,0,1,1.4.1l.8-1.2.2-.2a1.9,1.9,0,0,1-.7,2.6h-.3c-.2,0-.3,0-.4-.2v-.2h-.8a.7.7,0,0,1-.6-.2A.3.3,0,0,1,291.9,282.6Zm2,27.4a1.4,1.4,0,0,1,1.1.1c.2,0,.3.2.3.4a3.3,3.3,0,0,1,.5-1.5,1.2,1.2,0,0,1,1.8-.4,1.5,1.5,0,0,1,.4,1.1,9,9,0,0,1-1.2,5.1,4.1,4.1,0,0,0-.7,1.5h-.8a7.8,7.8,0,0,0-2,1.1,17,17,0,0,1-4.4,1.8,2.6,2.6,0,0,0-.7-1.5,23.8,23.8,0,0,0,3.6-3.5,8.1,8.1,0,0,1-2.7-1.1A6.8,6.8,0,0,1,293.9,310Zm-3.6-21.4h.1a.1.1,0,0,1-.1.1,2,2,0,0,1-1.2.8c-.5.2-1.2.1-1.6.4s-.4,1.2-.8,1.7-.6-.4-.6-.7-.1,1.1-.2,1.7-.2-.9-.2-1.3a2.8,2.8,0,0,1,.5-1.1,4.7,4.7,0,0,1,1.7-2h.2a.6.6,0,0,1,.4.6A2.3,2.3,0,0,1,290.3,288.6Zm-14.8-47.5c.2-.1.5-.1.7-.3a1,1,0,0,0,.4-.5,5.4,5.4,0,0,1,.7-1.3,6.5,6.5,0,0,0,.8-2.7,1.3,1.3,0,0,0-.7-1.5,2.7,2.7,0,0,0-.9,0,1.3,1.3,0,0,1-1-1.7c.8,0,1.1,1.1,1.8,1.2a1.2,1.2,0,0,0,1-.2c.8-.3,1.8-1.1,1.5-1.9h1.1c.3-.6-.7-1.2-1.4-1.3s-1.6-.8-1.2-1.4a11.4,11.4,0,0,1-3.7.3c0-.6.9-.5,1.5-.6a1.7,1.7,0,0,0,1.4-1.9L276,225c.8-.6,2,.2,2.5,1.1a17.2,17.2,0,0,0,1.1,2.9,1.7,1.7,0,0,0,2.1.2,3.1,3.1,0,0,0,1.1-1.8,11.4,11.4,0,0,1,.2,2.6,4.9,4.9,0,0,0,2.6-2.5,2.5,2.5,0,0,1,.1,1.5c-.1.1-.1.3-.3.4H285c-.3,0-.6.3-.8.5a2,2,0,0,0-.8,1.4.8.8,0,0,0,.7.8h-.4c-.1.3.3.7.7.9s.7.4.8.8l-.9-.2c-.3-.1-.6-.2-.9.1a.2.2,0,0,0,0,.3,1.3,1.3,0,0,0-.9.2.9.9,0,0,0,.3,1.2,1.7,1.7,0,0,0-1.2-.2c-.4.2-.6.8-.2,1a.4.4,0,0,0-.4.4,1.4,1.4,0,0,0,.2.6,1.6,1.6,0,0,1-.8,1.9.8.8,0,0,0-.2-1c-.3-.2-.6-.2-.6.2a2.2,2.2,0,0,1-.3,1.9l-.4-1a21.5,21.5,0,0,1-2.5,10.6,4.1,4.1,0,0,1-1.5-5.1c-.3.3-.7-.3-.8-.7S274.4,241.5,275.5,241.1Zm9.4,50.3c.1.1-.1.3-.2.4l-.4.2c-.1.1-.1.2-.2.4s-.5,1.1-1,1.1h-.2v-.2a2.9,2.9,0,0,1,.3-1l-.7.6-.5.2c-.1,0-.3-.1-.3-.2v-.2c-.1-.1.1-.4.3-.6s1.2-.7,1.5-1.3a7.4,7.4,0,0,0,.8-2.2.7.7,0,0,1,.2.8,4.4,4.4,0,0,0-.2,1l.5-.2a.3.3,0,0,1,.3.3c-.1.2-.3.2-.4.4S284.9,291.2,284.9,291.4ZM274.6,297a4.5,4.5,0,0,0,.3-1.1.7.7,0,0,0-.7-.7c.6-.2.6-.9.4-1.5s-.5-1.1-.2-1.6l.7-.5c.4-.5.2-1.2.1-1.8s.6-1.4,1.1-1a8.5,8.5,0,0,1,.4-3.2l.3-.4h.5a2.2,2.2,0,0,1,1.4,1.8.8.8,0,0,1,1.3-.5,1.5,1.5,0,0,1,.6,1.3,6.6,6.6,0,0,1-.5,1.5l-.4.5h.1a1,1,0,0,1,.2.9c-.4,1.5-1.7.9-2.3,1.6s-.1,1.5-.3,2.6-1.6,3.1-2.4,4.3-2.7,4.3-4.6,5.2C271,302,273.3,299.2,274.6,297Zm-7.8,20.4c.2-.4.5-.8.7-1.3s.3.2.4.3,1.2,0,1.5.5-.3,1.4-1,1.8a3.6,3.6,0,0,0-1.2.8Zm1.1,5.8-.5-2.4a1.6,1.6,0,0,0,.9.3,6.2,6.2,0,0,0,4.5-1.2,2.3,2.3,0,0,1,.6,1.2A21.6,21.6,0,0,1,267.9,323.2Zm10.8-19.8a2.3,2.3,0,0,0,.1,1.8,14.5,14.5,0,0,1-2.8-.4v1.1c0-.6-4.3,1.7-4.6,2,.5-1.5,1.7-1.7,2.8-2.7a4.3,4.3,0,0,0,1.1-2.1c0-.3.2-2.3.9-1.2a1.2,1.2,0,0,1,.1,1,3.6,3.6,0,0,0,1.5-1.2,1.9,1.9,0,0,0,.2-1.9,1,1,0,0,0,1.6-.3,2.8,2.8,0,0,0,.2-1.8,1,1,0,0,1,1.2-.3.8.8,0,0,1,.2,1.2c-.1.2-.4.5-.2.7h.3a3.7,3.7,0,0,0,2-.9c-.2.7-.3,1.4-.5,2.1s-.2.9.2,1.1a1,1,0,0,0,.9-.2l.8-.9a4.5,4.5,0,0,1,1-1.4,1,1,0,0,1,1.5,0l-.9,2.1,3.6.5c-.7.4-1.4.8-1.5,1.6a1.8,1.8,0,0,0,1,1.4,5.5,5.5,0,0,0,1.8.2c-.6.3,0,1.4-.4,1.9s-.8.2-1.2.1-.3.7-.4,1.2-.6.8-1,.6a1.4,1.4,0,0,1-.3-.9.5.5,0,0,0-.6-.5c.1.1,0,.3-.2.4a.9.9,0,0,1-.7-1.2c-.3.1-.4-.4-.4-.7a2.1,2.1,0,0,0-1-1.8c-.6-.4-1.6,0-1.6.7a2,2,0,0,0-1.6-1.5,2,2,0,0,0-2,.8A.8.8,0,0,0,278.7,303.4Zm.8,23.7,1-.5,2.1-.7a1.3,1.3,0,0,0,.7.9c.6.3,1.6-.2,1.4-.9a3.3,3.3,0,0,0,1.1,1.5.7.7,0,0,0,.5.4c.8.1,1.1-.9,1.1-1.7a2.6,2.6,0,0,0,2.1.6,5.9,5.9,0,0,0-.6-3.2l2.2-.8a3.7,3.7,0,0,1,1.3,1.2,11.5,11.5,0,0,1,1.1,4.6v.3a27.4,27.4,0,0,0,.5,2.8Zm21.9,4.4a8.8,8.8,0,0,1-3.5,1,5.5,5.5,0,0,1-1.8-.2,11.1,11.1,0,0,1-.8-3.7v-.2a11.3,11.3,0,0,0-1.3-5.4,4.3,4.3,0,0,0-.9-1,26.5,26.5,0,0,1,3.7-1.2H298a2.2,2.2,0,0,0,.5,1.4l.3-.3.3.7a5.3,5.3,0,0,0,1.6-2h1.4a20.6,20.6,0,0,0,1,9.8c0,.1.1.2.1.4Zm.9-14.9a1.5,1.5,0,0,0,0-1.8c-.3-.3-.7-.6-.4-.9s.3-.2.5-.2.8-1.3.8-2,.9-1.6,1.5-1.2a1.5,1.5,0,0,0,.3,1,1,1,0,0,0,.5.4,2,2,0,0,0,.1,1.3,1.2,1.2,0,0,0,1.7.7,1,1,0,0,0,.7,1.7,1.2,1.2,0,0,0-.9.8A18.9,18.9,0,0,1,302.3,316.6Zm2.5,13.4c0-.2-.1-.3-.1-.4-1.2-2.9-1.1-6.1-.8-9.2l3.8-.5a3.6,3.6,0,0,0-2.2,2,1.7,1.7,0,0,0,1.2,1.9,1.5,1.5,0,0,0-.8,2.3c.5.8.2,2,1,1.3a5.3,5.3,0,0,0,1.3-2.6,2.1,2.1,0,0,0,2.1-.5,5,5,0,0,0,1.3-1.9c.2.5.9.5,1.3.2v3.6Zm10-4.6v-3.3c0-.4-.1-.7-.1-1.1l1-.2,1.2-.7,2-1.4a10.9,10.9,0,0,0,.4,2.5,1.9,1.9,0,0,0,.8,1A25.1,25.1,0,0,1,314.8,325.4Zm5.4-14.3c-1.2,1.4-3.1,2-4.7,2.9s-2,1.3-3,1.8l-1.1.5H311v.2a5.5,5.5,0,0,1-1.8.1c.8-.5,3.7-1.9,3.7-3s-.2-.5-.3-.7a.6.6,0,0,1,.4-.9c.2-.1.5.2.5.5a.9.9,0,0,1,.4-.6.5.5,0,0,1,.8.2,4.6,4.6,0,0,0,1.7-1.7c.3-.5.4-.9.8-1.2s1.1-.3,1.2.2-1,1.2-.8,1.9a5.3,5.3,0,0,0,3.1-1.7C321,310.1,320.6,310.7,320.2,311.1Zm4.3-5.9c-.2.3-.6.4-.9.6s.5.5.6.9v.5a3.7,3.7,0,0,1-.7,1.4,1.3,1.3,0,0,1-1.4.6,1.2,1.2,0,0,0,.5-.9c-.1-.4-.4-.7-.8-.6s-.4.5-.6.7-.7.4-.8.1.2-.5.4-.7-.2-1.4-.3-2.1a1.3,1.3,0,0,1,.8-1.3c-1.1-1.3.4-2.2.4-3.5s-1.4-.4-2.4-.3c.5-.1.7-1,1.1-1.5l.8-.8.4-.5a1.4,1.4,0,0,0,.2.6,1,1,0,0,0,1.2.1c.1-.1.3-.3.4-.1s.1,0,.1.1a5.6,5.6,0,0,0,.4,1.2,1.1,1.1,0,0,1,0,.8c-.1.2-.4.3-.5.5s.3.9.8,1.1-.7.4-.8.8a1.2,1.2,0,0,0,.7,1c.2.1.4.1.5.3A.7.7,0,0,1,324.5,305.2Zm5.8-85a4.2,4.2,0,0,1-1.5.4c-.5-.1-1.1-.5-1-1.1s.1-.4-.1-.6h-.4l-2.3.7a2.7,2.7,0,0,1,1.5-2.4l-2.6,1.3a.4.4,0,0,1-.5.1.6.6,0,0,1,0-.6,6.2,6.2,0,0,1,3-2.5c2-.5.8,1.3,1.4,1.4l.9.2c0,.4.1.7.1,1a20.1,20.1,0,0,0,4.2.5l1.5.2a1.7,1.7,0,0,1,.9,1.1A11,11,0,0,0,330.3,220.2ZM361,282.1c-.7-.2-1,.7-1,1.4s-.5,1.6-1,1.3a13.6,13.6,0,0,1-.4-1.7c0,.4-.7.4-.9,0a3.2,3.2,0,0,1-.1-1.4,2,2,0,0,0-1.5-1.9l-.3,1.1a4.9,4.9,0,0,0-4.2-3,8.9,8.9,0,0,1,.8,1.7c-.7-1.1-1.8-2.3-3-1.8l-.8.4c-1,.1-1.3-1.7-2.3-1.9h-1c-.7,0-1.2-.7-1.7-1.1s-3.5-.6-5.2.1-3.4,1.7-5.2,1.2a1.3,1.3,0,0,1,.6-1.9c1-.7,3.3.2,4.1-.8s-1.2-2.4-.3-3.2a.7.7,0,0,1,1,.1,2.2,2.2,0,0,1,.5,1.1,1,1,0,0,1,.8-1.1c-.4.4-.1,1,.4,1.2a1.8,1.8,0,0,0,1.3-.5,9.1,9.1,0,0,0-.1,1.7,1.2,1.2,0,0,0,1.3-.8.5.5,0,0,0,.2.4c.2.3.7.3.8,0v1a.7.7,0,0,0,.8-.5c.6,1,1.6,2,2.6,1.6a1.4,1.4,0,0,0,.9-1.2,2.2,2.2,0,0,0,2,2.1,2.3,2.3,0,0,0,2.5-1.6,1.8,1.8,0,0,0,.7,2,3,3,0,0,0,1.6-2.9,2.9,2.9,0,0,0-2-2.5,1.9,1.9,0,0,1,1.5-.7,2,2,0,0,0,.7,1.5,1.6,1.6,0,0,1,1.5-1.8,3.8,3.8,0,0,0-.2,4.2c.1.3.3.5.3.8s-.3.6-.4.9.9,1.5,1.7,1.2a2.9,2.9,0,0,0,1.5-1.9,3.2,3.2,0,0,1,.8-1.2c.4-.2,1.1-.1,1.2.4s-.4.8-.6,1.2.6,1.4,1.4,1.4a4.1,4.1,0,0,0,1.9-1.1.5.5,0,0,0,0,.7h1.5c.5.2.4,1,0,1.3s-1,.4-1.5.6-.9.8-.6,1.3.8.3,1.2.4.9.4.7.8a2.7,2.7,0,0,0-1.8.1c-.5.4-.5,1.4.1,1.5a.8.8,0,0,0,.7-.1,1.7,1.7,0,0,1,2,1.5A5.9,5.9,0,0,1,361,282.1Zm8,5.3a3.6,3.6,0,0,1-1,1.4.8.8,0,0,0-.2.4.8.8,0,0,0,.4.4,1.5,1.5,0,0,1,.3,1.9,5.4,5.4,0,0,1-1.6,1.4l-2.5,1.6a7.1,7.1,0,0,1,1.8-1.6,2.8,2.8,0,0,0,1.2-2h-.8a1.5,1.5,0,0,1,.4-1.3c-.1-.5-.8-.1-1.2-.1a1,1,0,0,1-.6-1,5.7,5.7,0,0,1,0-1.3c.1-.2.1-.4.3-.5l2.4-.5C368.5,286.2,369.5,286.2,369,287.4Zm12.3-36.2-1.4-.6c-.1.1,0,.3.1.5l-1.2.5h-.2a4.9,4.9,0,0,1,.8-2.1h.1v-.6h0c.1-.1.2,0,.3.1s.5,1.2.9,1.6l.5.3A.7.7,0,0,1,381.3,251.2Zm13.2-1c-.1.3-.3.5-.3.8v.6c0,.5-.4.7-.8,1a4.9,4.9,0,0,0-1.6,3.2,5.7,5.7,0,0,1-.3-1.8,5.2,5.2,0,0,1-1.1,1c-.3-.5.1-1,.4-1.4a8.6,8.6,0,0,1,1.4-1.3c.2-.2.4-.3.5-.6s.1-.6-.1-.7l-.5-.2c-.2,0-.3-.2-.2-.4h.2c.3-.2.8-.2,1.2-.4s.4-.5.6-.5S395.1,249.4,394.5,250.2Z"/><path class="cls-2" d="M150.8,422.6h5l10.6,24.9h-5.6l-2.3-5.5H148l-2.2,5.5h-5.6Zm5.7,14.6-3.2-8-3.3,8Z"/><path class="cls-2" d="M192.2,422.6h5l10.6,24.9h-5.7l-2.3-5.5H189.4l-2.3,5.5h-5.5Zm5.7,14.6-3.3-8-3.3,8Z"/><path class="cls-2" d="M225.7,422.8h11.5c2.9,0,5,.7,6.5,2.2a5.7,5.7,0,0,1,1.7,4.2h0a5.7,5.7,0,0,1-3.3,5.3c2.9,1.1,4.6,2.8,4.6,6.1h0c0,4.5-3.6,6.7-9.2,6.7H225.7Zm14.3,7.3c0-1.6-1.3-2.5-3.6-2.5H231v5.2h5c2.4,0,4-.8,4-2.6Zm1.3,9.9c0-1.6-1.2-2.7-4-2.7H231v5.5h6.5c2.4,0,3.8-.9,3.8-2.7Z"/><path class="cls-2" d="M265.4,422.8h5.4v9.8h10v-9.8h5.5v24.7h-5.5v-9.9h-10v9.9h-5.4Z"/><path class="cls-2" d="M314.8,422.6h5l10.6,24.9h-5.6l-2.3-5.5H312l-2.2,5.5h-5.6Zm5.7,14.6-3.2-8-3.3,8Z"/><path class="cls-2" d="M356.2,422.6h5l10.6,24.9h-5.7l-2.3-5.5H353.4l-2.3,5.5h-5.5Zm5.7,14.6-3.3-8-3.3,8Z"/></svg>